<svg xmlns="http://www.w3.org/2000/svg" viewBox="0 0 800 600">
  <!-- Grid and base styles -->
  <defs>
    <marker id="arrow" viewBox="0 0 10 10" refX="9" refY="5"
      markerWidth="6" markerHeight="6" orient="auto">
      <path d="M 0 0 L 10 5 L 0 10 z" fill="#666"/>
    </marker>
  </defs>

  <!-- Center Point Illustration -->
  <g transform="translate(50, 50)">
    <text x="0" y="-20" fill="#333" font-size="14">findCenterPoint</text>
    <!-- Points -->
    <circle cx="20" cy="20" r="4" fill="#4CAF50"/>
    <circle cx="60" cy="40" r="4" fill="#4CAF50"/>
    <circle cx="40" cy="60" r="4" fill="#4CAF50"/>
    <circle cx="80" cy="30" r="4" fill="#4CAF50"/>
    <!-- Center point -->
    <circle cx="50" cy="37.5" r="6" fill="#FF5722"/>
    <!-- Lines to center -->
    <line x1="20" y1="20" x2="50" y2="37.5" stroke="#ddd" stroke-width="1"/>
    <line x1="60" y1="40" x2="50" y2="37.5" stroke="#ddd" stroke-width="1"/>
    <line x1="40" y1="60" x2="50" y2="37.5" stroke="#ddd" stroke-width="1"/>
    <line x1="80" y1="30" x2="50" y2="37.5" stroke="#ddd" stroke-width="1"/>
  </g>

  <!-- Concave Hull Illustration -->
  <g transform="translate(200, 50)">
    <text x="0" y="-20" fill="#333" font-size="14">findConcaveHull</text>
    <!-- Points -->
    <circle cx="20" cy="20" r="4" fill="#4CAF50"/>
    <circle cx="60" cy="10" r="4" fill="#4CAF50"/>
    <circle cx="80" cy="30" r="4" fill="#4CAF50"/>
    <circle cx="70" cy="50" r="4" fill="#4CAF50"/>
    <circle cx="30" cy="60" r="4" fill="#4CAF50"/>
    <circle cx="40" cy="40" r="4" fill="#4CAF50"/>
    <!-- Hull -->
    <path d="M20,20 L60,10 L80,30 L70,50 L30,60 Z" 
          fill="none" stroke="#2196F3" stroke-width="2"/>
    <!-- Direction arrow -->
    <path d="M20,20 Q40,0 60,10" fill="none" stroke="#666" 
          stroke-width="1" marker-end="url(#arrow)" stroke-dasharray="4"/>
  </g>

  <!-- Hull Segment Illustration -->
  <g transform="translate(400, 50)">
    <text x="0" y="-20" fill="#333" font-size="14">getHullSegment (N to E)</text>
    <!-- Points forming hull -->
    <path d="M20,60 L40,20 L70,10 L90,40 L80,70 L40,80 Z" 
          fill="none" stroke="#ccc" stroke-width="1"/>
    <!-- Highlighted segment -->
    <path d="M40,20 L70,10 L90,40" 
          fill="none" stroke="#FF5722" stroke-width="3"/>
    <!-- Direction indicators -->
    <text x="35" y="15" fill="#666">N</text>
    <text x="95" y="45" fill="#666">E</text>
  </g>

  <!-- Grid Points Illustration -->
  <g transform="translate(50, 250)">
    <text x="0" y="-20" fill="#333" font-size="14">createGridPoints</text>
    <!-- Grid background -->
    <rect x="10" y="10" width="100" height="80" 
          fill="none" stroke="#eee" stroke-width="1"/>
    <!-- Points -->
    <g fill="#4CAF50">
      <circle cx="30" cy="20" r="4"/>
      <circle cx="60" cy="20" r="4"/>
      <circle cx="90" cy="20" r="4"/>
      <text x="25" y="35" font-size="10">a1</text>
      <text x="55" y="35" font-size="10">a2</text>
      <text x="85" y="35" font-size="10">a3</text>
      
      <circle cx="20" cy="50" r="4"/>
      <circle cx="50" cy="50" r="4"/>
      <circle cx="80" cy="50" r="4"/>
      <text x="15" y="65" font-size="10">b1</text>
      <text x="45" y="65" font-size="10">b2</text>
      <text x="75" y="65" font-size="10">b3</text>
      
      <circle cx="30" cy="80" r="4"/>
      <circle cx="60" cy="80" r="4"/>
      <text x="25" y="95" font-size="10">c1</text>
      <text x="55" y="95" font-size="10">c2</text>
    </g>
  </g>

  <!-- Normalized Attachment Points Illustration -->
  <g transform="translate(200, 250)">
    <text x="0" y="-20" fill="#333" font-size="14">getNormalizedAttachmentPoints</text>
    <!-- Component outline -->
    <rect x="20" y="20" width="120" height="80" 
          fill="none" stroke="#666" stroke-width="2"/>
    <!-- Attachment regions -->
    <g fill="#4CAF50" opacity="0.3">
      <rect x="20" y="20" width="60" height="40"/> <!-- front-left -->
      <rect x="80" y="20" width="60" height="40"/> <!-- front-right -->
      <rect x="20" y="60" width="60" height="40"/> <!-- back-left -->
      <rect x="80" y="60" width="60" height="40"/> <!-- back-right -->
    </g>
    <!-- Normalized points -->
    <g fill="#FF5722">
      <circle cx="50" cy="40" r="4"/> <!-- front-left -->
      <circle cx="110" cy="40" r="4"/> <!-- front-right -->
      <circle cx="50" cy="80" r="4"/> <!-- back-left -->
      <circle cx="110" cy="80" r="4"/> <!-- back-right -->
      <circle cx="80" cy="20" r="4"/> <!-- top -->
      <circle cx="80" cy="100" r="4"/> <!-- bottom -->
    </g>
    <!-- Labels -->
    <g fill="#333" font-size="10">
      <text x="35" y="35">FL</text>
      <text x="105" y="35">FR</text>
      <text x="35" y="85">BL</text>
      <text x="105" y="85">BR</text>
      <text x="85" y="25">T</text>
      <text x="85" y="95">B</text>
    </g>
  </g>

  <!-- Legend -->
  <g transform="translate(50, 500)">
    <text x="0" y="0" fill="#333" font-size="12">Legend:</text>
    <circle cx="20" cy="20" r="4" fill="#4CAF50"/>
    <text x="30" y="25" fill="#333" font-size="12">Input points</text>
    
    <circle cx="120" cy="20" r="4" fill="#FF5722"/>
    <text x="130" y="25" fill="#333" font-size="12">Calculated points</text>
    
    <line x1="220" y1="20" x2="260" y2="20" 
          stroke="#2196F3" stroke-width="2"/>
    <text x="270" y="25" fill="#333" font-size="12">Hull/Path</text>
  </g>
</svg>