<?xml version="1.0" encoding="UTF-8" standalone="no"?>
<!-- Created with Inkscape (http://www.inkscape.org/) -->

<svg
   width="54.289402mm"
   height="49.978416mm"
   viewBox="0 0 54.289404 49.978417"
   version="1.1"
   id="svg1"
   xmlns="http://www.w3.org/2000/svg"
   xmlns:svg="http://www.w3.org/2000/svg">
  <defs
     id="defs1" />
  <path
     style="fill:#000000;stroke:#000000;stroke-width:0.264583px;stroke-linecap:butt;stroke-linejoin:round;stroke-opacity:1"
     d="M 27.591918,22.380455 27.551208,4.1245656 31.66678,1.8552726 31.666546,20.028035 Z"
     id="path27" />
  <path
     style="fill:#fae36f;fill-opacity:1;stroke:#000000;stroke-width:0.264583px;stroke-linecap:butt;stroke-linejoin:round;stroke-opacity:1"
     d="M 11.453655,22.856267 8.4183983,21.1333 12.533983,18.864009 15.569227,20.58699 Z"
     id="path9" />
  <path
     style="fill:#000000;stroke:#000000;stroke-width:0.264583px;stroke-linecap:butt;stroke-linejoin:round;stroke-opacity:1"
     d="m 11.494367,31.504452 -0.04084,-8.648263 4.115571,-2.26929 -9e-5,8.565131 z"
     id="path10" />
  <path
     style="fill:#f3bd5b;fill-opacity:1;stroke:#000000;stroke-width:0.264583px;stroke-linecap:butt;stroke-linejoin:round;stroke-opacity:1"
     d="m 8.4182553,21.13321 3.0352577,1.722979 0.04084,8.648263 -3.0352567,-1.722982 z"
     id="path22" />
  <path
     style="fill:#fae36f;fill-opacity:1;stroke:#000000;stroke-width:0.264583px;stroke-linecap:butt;stroke-linejoin:round;stroke-opacity:1"
     d="M 3.1675483,31.931151 0.13229129,30.20817 4.2478763,27.938878 l 3.035259,1.722981 z"
     id="path7" />
  <path
     style="fill:#000000;stroke:#000000;stroke-width:0.264583px;stroke-linecap:butt;stroke-linejoin:round;stroke-opacity:1"
     d="m 3.2082603,36.461733 -0.04071,-4.530582 4.115587,-2.269292 -2.47e-4,4.447452 z"
     id="path6" />
  <path
     style="fill:#f3bd5b;fill-opacity:1;stroke:#000000;stroke-width:0.264583px;stroke-linecap:butt;stroke-linejoin:round;stroke-opacity:1"
     d="m 0.13229129,30.20817 3.03525701,1.722981 0.04071,4.530582 -3.03525701,-1.722982 z"
     id="path8" />
  <path
     style="fill:#fae36f;fill-opacity:1;stroke:#000000;stroke-width:0.264583px;stroke-linecap:butt;stroke-linejoin:round;stroke-opacity:1"
     d="m 19.423333,14.853026 -3.035257,-1.722969 4.115584,-2.269278 3.035245,1.722968 z"
     id="path23" />
  <path
     style="fill:#000000;stroke:#000000;stroke-width:0.264583px;stroke-linecap:butt;stroke-linejoin:round;stroke-opacity:1"
     d="m 19.464045,26.932552 -0.04071,-12.079513 4.115572,-2.269292 -2.46e-4,11.99637 z"
     id="path24" />
  <path
     style="fill:#f3bd5b;fill-opacity:1;stroke:#000000;stroke-width:0.264583px;stroke-linecap:butt;stroke-linejoin:round;stroke-opacity:1"
     d="m 16.388076,13.130044 3.035257,1.722982 0.04071,12.079526 -3.035257,-1.722982 z"
     id="path25" />
  <path
     style="fill:#fae36f;fill-opacity:1;stroke:#000000;stroke-width:0.264583px;stroke-linecap:butt;stroke-linejoin:round;stroke-opacity:1"
     d="M 27.551206,4.1245526 24.515948,2.4015836 28.631533,0.13228957 31.666777,1.8552726 Z"
     id="path26" />
  <path
     style="fill:#f3bd5b;fill-opacity:1;stroke:#000000;stroke-width:0.264583px;stroke-linecap:butt;stroke-linejoin:round;stroke-opacity:1"
     d="m 24.515948,2.4015836 3.035258,1.722982 0.04071,18.2558894 -3.035257,-1.72298 z"
     id="path28" />
  <path
     style="color:#000000;fill:#f3bd5b;fill-opacity:1;stroke:#000000;stroke-width:0.264583;stroke-dasharray:none"
     d="m 41.454329,6.5507575 -4.545592,15.1319505 -4.507603,1.213295 -6.070073,7.657145 -5.204004,-0.823206 -4.421511,8.751401 -3.299667,5.349627 1.169947,0.721894 3.32753,-5.400295 3.998596,-7.910454 5.006484,0.790291 6.287858,-7.930721 4.806424,-1.294337 4.765906,-15.8614445 z"
     id="path77" />
  <path
     id="path78"
     style="fill:#000000;stroke:#000000;stroke-width:0.264583;stroke-linecap:round;stroke-linejoin:round;stroke-miterlimit:4.1"
     d="m 43.548731,5.9183345 c 0,0.916789 -0.643475,2.031587 -1.437248,2.489982 -0.793773,0.4583954 -1.437248,0.08676 -1.437248,-0.82999 0,-0.91679 0.643462,-2.031587 1.437248,-2.489982 0.793773,-0.458395 1.437248,-0.08676 1.437248,0.82999 z" />
  <path
     id="path80"
     style="fill:#000000;stroke:#000000;stroke-width:0.264583;stroke-linecap:round;stroke-linejoin:round;stroke-miterlimit:4.1"
     d="m 38.542674,21.094444 c 0,0.91679 -0.643474,2.031586 -1.437247,2.489981 -0.793774,0.458394 -1.437248,0.08676 -1.437248,-0.82999 0,-0.916789 0.643461,-2.031599 1.437248,-2.489981 0.793773,-0.458394 1.437247,-0.08676 1.437247,0.82999 z" />
  <path
     id="path81"
     style="fill:#000000;stroke:#000000;stroke-width:0.264583;stroke-linecap:round;stroke-linejoin:round;stroke-miterlimit:4.1"
     d="m 34.177227,22.805403 c 0,0.91679 -0.643475,2.031599 -1.437247,2.48998 -0.793774,0.458395 -1.437249,0.08676 -1.437249,-0.829989 0,-0.916789 0.643462,-2.031585 1.437249,-2.48998 0.793772,-0.458395 1.437247,-0.08676 1.437247,0.829989 z" />
  <path
     id="path82"
     style="fill:#000000;stroke:#000000;stroke-width:0.264583;stroke-linecap:round;stroke-linejoin:round;stroke-miterlimit:4.1"
     d="m 27.860819,30.068713 c 0,0.916789 -0.643462,2.031585 -1.437235,2.48998 -0.793773,0.458395 -1.437261,0.08676 -1.437261,-0.82999 0,-0.916789 0.643462,-2.031585 1.437261,-2.48998 0.793773,-0.458394 1.437235,-0.08676 1.437235,0.82999 z" />
  <path
     id="path83"
     style="fill:#000000;stroke:#000000;stroke-width:0.264583;stroke-linecap:round;stroke-linejoin:round;stroke-miterlimit:4.1"
     d="m 22.828169,29.818727 c 0,0.916788 -0.643475,2.031584 -1.43726,2.489979 -0.793773,0.458395 -1.437248,0.08676 -1.437248,-0.829989 0,-0.916789 0.643462,-2.031585 1.437248,-2.48998 0.793785,-0.458394 1.43726,-0.08676 1.43726,0.82999 z" />
  <path
     id="path84"
     style="fill:#000000;stroke:#000000;stroke-width:0.264583;stroke-linecap:round;stroke-linejoin:round;stroke-miterlimit:4.1"
     d="m 15.629017,43.135363 c 0,0.916789 -0.643475,2.031587 -1.437247,2.489981 -0.793773,0.458395 -1.437248,0.08676 -1.437248,-0.829989 0,-0.91679 0.643462,-2.031587 1.437248,-2.489982 0.793772,-0.458395 1.437247,-0.08676 1.437247,0.82999 z" />
  <circle
     style="display:inline;fill:#ff0000;stroke-width:0.529168;stroke-linecap:round;stroke-miterlimit:4.1;stroke-dasharray:none"
     id="attach-point"
     cx="27.993111"
     cy="34.474197"
     r="0.83869553" />
  <path
     style="fill:#fae36f;stroke:#000000;stroke-width:0.264583;stroke-linecap:butt;stroke-linejoin:round;stroke-dasharray:none;stroke-opacity:1;fill-opacity:1"
     d="m 26.759709,49.846136 v -3.321929 l 2.490309,-4.759806 2.490464,-0.337772 2.491398,-5.8607 1.70932,0.43557 3.27135,2.420041 2.490904,-7.170299 2.490997,0.634432 2.491099,-6.832823 2.489635,1.882834 2.490919,-8.081227 2.491008,-4.760391 -3.37e-4,19.930419 z"
     id="path1" />
  <path
     style="fill:#f3bd5b;fill-opacity:1;stroke:#000000;stroke-width:0.264583;stroke-linecap:round;stroke-linejoin:round;stroke-dasharray:none;stroke-opacity:1"
     d="m 25.548956,49.158149 1.210753,0.687987 v -3.321929 l 2.490309,-4.759806 -1.074106,-0.588611 -2.466644,4.789062 z"
     id="path2" />
  <path
     style="fill:#000000;stroke:#000000;stroke-width:0.264583px;stroke-linecap:butt;stroke-linejoin:round;stroke-opacity:1"
     d="m 29.250018,41.764401 2.490463,-0.337773 -1.108954,-0.471585 -2.44729,0.239781"
     id="path3" />
  <path
     style="fill:#f3bd5b;fill-opacity:1;stroke:#000000;stroke-width:0.264583px;stroke-linecap:butt;stroke-linejoin:round;stroke-opacity:1"
     d="m 30.543758,40.89653 1.196723,0.530098 2.491398,-5.8607 -1.034601,-0.342515 c -0.683823,1.996969 -1.790251,3.751193 -2.65352,5.673117 z"
     id="path4" />
  <path
     style="fill:#f3bd5b;fill-opacity:1;stroke:#000000;stroke-width:0.264583px;stroke-linecap:butt;stroke-linejoin:round;stroke-opacity:1"
     d="m 39.212549,38.421539 -1.036933,-0.767091 2.325781,-6.7218 1.202057,0.318593 -2.490905,7.170298"
     id="path11" />
  <path
     style="fill:#f3bd5b;fill-opacity:1;stroke:#000000;stroke-width:0.264583px;stroke-linecap:butt;stroke-linejoin:round;stroke-opacity:1"
     d="m 42.948953,31.568457 1.245497,0.317215 2.491099,-6.832822 -1.178134,-0.486049 -2.558462,7.001656"
     id="path12" />
  <path
     style="fill:#f3bd5b;fill-opacity:1;stroke:#000000;stroke-width:0.264583px;stroke-linecap:butt;stroke-linejoin:round;stroke-opacity:1"
     d="m 48.125248,26.141649 2.314876,-7.510097 2.682385,-5.095301 1.034601,0.557815 -2.491007,4.760391 -2.49092,8.081227 z"
     id="path13" />
</svg>
