<?xml version="1.0" encoding="UTF-8" standalone="no"?>
<!-- Created with Inkscape (http://www.inkscape.org/) -->

<svg
   width="1307.3093"
   height="876.40015"
   viewBox="0 0 345.89226 231.88087"
   version="1.1"
   id="svg1"
   xmlns="http://www.w3.org/2000/svg"
   xmlns:svg="http://www.w3.org/2000/svg">
  <defs
     id="defs1" />
  <path
     id="path2"
     style="fill:#f3bd5b;fill-opacity:1;stroke:#000000;stroke-width:1.05833;stroke-linecap:butt;stroke-linejoin:round;stroke-dasharray:none;stroke-opacity:1"
     d="m 0.57722403,95.70528 -0.048059,7.87963 c 0.00288,0.58057 1.70945637,1.73426 1.70945637,1.73426 0,0 135.9663186,78.49176 203.9472486,117.74061 1.5011,0.86666 3.20387,1.32292 4.93716,1.32292 h 109.27654 c 1.567,0 2.94503,-1.03648 3.37964,-2.54196 l 21.44623,-74.29108 c 0.078,-0.27023 0.081,-0.55719 0.0811,-0.84232 l 0.0341,0.009 0.0155,-7.89771 -0.0589,0.21549 c -0.0163,0.19439 -0.002,0.39336 -0.0558,0.5793 l -21.44623,74.29107 c -0.43461,1.50551 -1.81264,2.54196 -3.37964,2.54196 H 211.13905 c -1.73331,0 -3.43606,-0.45625 -4.93716,-1.32291 C 138.22082,175.87439 70.245245,136.61513 2.254641,97.382697 1.145367,96.742616 0.61514173,96.163447 0.57929113,95.706314 Z" />
  <path
     id="path9"
     style="fill:#000000;fill-opacity:1;stroke:#000000;stroke-width:1.05833;stroke-linecap:butt;stroke-linejoin:round;stroke-dasharray:none;stroke-opacity:1"
     d="m 345.35618,138.81841 -0.0589,0.21549 c -0.0163,0.19439 -0.002,0.39336 -0.0558,0.5793 l -19.90524,68.95289 0.37583,6.77313 1.91912,-6.84134 17.59427,-60.94822 c 0.078,-0.27023 0.081,-0.55719 0.0811,-0.84232 l 0.0341,0.009 z" />
  <path
     id="path6"
     style="fill:#fae36f;fill-opacity:1;stroke:#000000;stroke-width:1.05833;stroke-linecap:butt;stroke-linejoin:miter;stroke-dasharray:none;stroke-opacity:1"
     d="m 133.6714,20.429999 c -3.86587,13.672006 -14.36156,51.654885 -20.16716,72.472128 -0.21731,0.75275 -0.67033,1.38825 -1.26504,1.83555 -0.5947,0.4473 -1.33111,0.70641 -2.11459,0.70642 -35.721087,-0.0807 -71.441939,-0.64872 -107.1630979,-0.70198 -2.92172557,-0.004 -3.23827657,1.17999 -0.707061,2.64057 C 70.245123,136.61516 138.22054,175.87455 206.20168,215.12352 c 1.5011,0.86666 3.20385,1.32292 4.93717,1.32292 h 109.27653 c 1.567,0 2.94503,-1.03645 3.37964,-2.54196 l 21.44624,-74.29108 c 0.40528,-1.4039 -0.29105,-3.13671 -1.55495,-3.87004 L 139.73566,18.008254 c -2.53105,-1.461104 -5.27091,-0.383985 -6.06426,2.421745 z" />
  <circle
     style="fill:#ff0000;stroke:none;stroke-width:0.264583;stroke-linecap:round;stroke-miterlimit:4.1"
     id="attach-back-right"
     cx="261.17822"
     cy="68.632988"
     r="1.6773911" />
  <circle
     style="fill:#ff0000;stroke:none;stroke-width:0.264583;stroke-linecap:round;stroke-miterlimit:4.1"
     id="attach-back-left"
     cx="96.798508"
     cy="89.973083"
     r="1.6773911" />
  <circle
     style="fill:#ff0000;stroke:none;stroke-width:0.264583;stroke-linecap:round;stroke-miterlimit:4.1"
     id="attach-bottom"
     cx="167.84618"
     cy="209.7014"
     r="1.6773911" />
  <circle
     style="fill:#ff0000;stroke:none;stroke-width:0.264583;stroke-linecap:round;stroke-miterlimit:4.1"
     id="attach-front-left"
     cx="82.452248"
     cy="171.82048"
     r="1.6773911" />
  <circle
     style="fill:#ff0000;stroke:none;stroke-width:0.264583;stroke-linecap:round;stroke-miterlimit:4.1"
     id="attach-top"
     cx="167.84618"
     cy="1.6773911"
     r="1.6773911" />
  <circle
     style="fill:#ff0000;stroke:none;stroke-width:0.264583;stroke-linecap:round;stroke-miterlimit:4.1"
     id="attach-front-right"
     cx="339.69839"
     cy="230.20348"
     r="1.6773911" />
  <circle
     style="fill:#ff0000;stroke:none;stroke-width:0.264583;stroke-linecap:round;stroke-miterlimit:4.1"
     id="attach-top-a3"
     cx="112.23991"
     cy="121.1952"
     r="1.6773911" />
  <circle
     style="fill:#ff0000;stroke:none;stroke-width:0.264583;stroke-linecap:round;stroke-miterlimit:4.1"
     id="attach-top-a2"
     cx="146.61031"
     cy="101.35144"
     r="1.6773911" />
  <circle
     style="fill:#ff0000;stroke:none;stroke-width:0.264583;stroke-linecap:round;stroke-miterlimit:4.1"
     id="attach-top-a1"
     cx="180.98074"
     cy="81.507721"
     r="1.6773911" />
  <circle
     style="fill:#ff0000;stroke:none;stroke-width:0.264583;stroke-linecap:round;stroke-miterlimit:4.1"
     id="attach-top-b3"
     cx="158.06711"
     cy="147.52986"
     r="1.6773911" />
  <circle
     style="fill:#ff0000;stroke:none;stroke-width:0.264583;stroke-linecap:round;stroke-miterlimit:4.1"
     id="attach-top-b2"
     cx="192.43752"
     cy="127.68611"
     r="1.6773911" />
  <circle
     style="fill:#ff0000;stroke:none;stroke-width:0.264583;stroke-linecap:round;stroke-miterlimit:4.1"
     id="attach-top-b1"
     cx="226.80792"
     cy="107.84237"
     r="1.6773911" />
  <circle
     style="fill:#ff0000;stroke:none;stroke-width:0.264583;stroke-linecap:round;stroke-miterlimit:4.1"
     id="attach-top-c3"
     cx="203.89432"
     cy="174.07689"
     r="1.6773911" />
  <circle
     style="fill:#ff0000;stroke:none;stroke-width:0.264583;stroke-linecap:round;stroke-miterlimit:4.1"
     id="attach-top-c2"
     cx="238.26469"
     cy="154.23312"
     r="1.6773911" />
  <circle
     style="fill:#ff0000;stroke:none;stroke-width:0.264583;stroke-linecap:round;stroke-miterlimit:4.1"
     id="attach-top-c1"
     cx="272.63507"
     cy="134.38937"
     r="1.6773911" />
  <circle
     style="fill:#ff0000;stroke:none;stroke-width:0.264583;stroke-linecap:round;stroke-miterlimit:4.1"
     id="attach-top-d3"
     cx="249.7215"
     cy="200.57019"
     r="1.6773911" />
  <circle
     style="fill:#ff0000;stroke:none;stroke-width:0.264583;stroke-linecap:round;stroke-miterlimit:4.1"
     id="attach-top-d2"
     cx="284.09183"
     cy="180.72643"
     r="1.6773911" />
  <circle
     style="fill:#ff0000;stroke:none;stroke-width:0.264583;stroke-linecap:round;stroke-miterlimit:4.1"
     id="attach-top-d1"
     cx="318.46222"
     cy="160.88269"
     r="1.6773911" />
</svg>
