<?xml version="1.0" encoding="UTF-8" standalone="no"?>
<!-- Created with Inkscape (http://www.inkscape.org/) -->

<svg
   width="40.927395mm"
   height="36.563374mm"
   viewBox="0 0 40.927395 36.563374"
   version="1.1"
   id="svg1"
   xmlns="http://www.w3.org/2000/svg"
   xmlns:svg="http://www.w3.org/2000/svg">
  <defs
     id="defs1">
    <filter
       style="color-interpolation-filters:sRGB"
       id="filter13"
       x="-0.16559695"
       y="-0.24568081"
       width="1.3311939"
       height="1.4913616">
      <feFlood
         flood-opacity="0.682353"
         flood-color="rgb(255,255,255)"
         result="flood"
         id="feFlood11" />
      <feColorMatrix
         in="SourceGraphic"
         values="1 0 0 0 0 0 1 0 0 0 0 0 1 0 0 -0.2125 -0.7154 -0.0721 1 0 "
         result="colormatrix1"
         id="feColorMatrix11" />
      <feGaussianBlur
         in="colormatrix1"
         stdDeviation="3 3"
         result="blur"
         id="feGaussianBlur11" />
      <feColorMatrix
         in="blur"
         values="1 0 0 0 0 0 1 0 0 0 0 0 1 0 0 0 0 0 6 -2 "
         result="colormatrix2"
         id="feColorMatrix12" />
      <feBlend
         in="colormatrix2"
         in2="BackgroundImage"
         mode="normal"
         result="blend"
         id="feBlend12" />
      <feComposite
         in="blend"
         in2="blend"
         operator="arithmetic"
         k2="1"
         result="composite1"
         id="feComposite12"
         k1="0"
         k3="0"
         k4="0" />
      <feComposite
         in2="SourceGraphic"
         operator="in"
         id="feComposite13" />
    </filter>
  </defs>
  <path
     id="path30"
     d="m 6.1368349,35.920641 -4.1616894,-2.40159 0.0027,-6.8e-4 v 0 c -1.128913,-0.65342 -1.845554,-2.17281 -1.845554,-4.30403 v 0 c 0,-3.86004 2.347833,-8.34374 5.2441504,-10.01524 l 0.568084,-0.32768 v 0 c -0.09847,-0.62222 -0.151698,-1.29184 -0.151698,-2.0091 0,-5.44012 2.967211,-11.6688495 6.8622691,-14.7920295 -1.521583,1.2217 -2.9011511,2.91666 -4.0179721,4.85418 l 4.1943531,2.42044 c 1.446101,-2.50847 3.334965,-4.61091 5.399712,-5.80311 0.89254,-0.51461 1.75144,-0.82124 2.55615,-0.93563 -0.80471,0.11487 -1.66288,0.42151 -2.55517,0.93635 -4.552434,2.62721 -8.2430531,9.6752395 -8.2430531,15.7421795 v 0 0 c 0,0.71726 0.05322,1.38688 0.1519381,2.00886 l -6.86e-4,5.4e-4 -4.1955621,-2.42189 -1.725308,1.16826 c -1.4654554,1.28652 -2.6988874,3.25377 -3.4143224,5.36492 l 4.1943554,2.42141 c -0.427031,1.25798 -0.670671,2.56626 -0.670671,3.80973 v 0 0 c 0,2.108 0.700669,3.61942 1.808293,4.28444 m 3.419645,-0.22828 c 0.0055,-0.003 0.0109,-0.006 0.01618,-0.009 -0.0055,0.003 -0.0109,0.006 -0.01618,0.009 m 0.01618,-0.009 0.7316391,-0.42223 v 0 l -0.7316391,0.42223 m 0.9099471,-0.52525 v 0 l 6.717354,-3.87623 7.43617,-4.29121 -7.43617,4.29121 -6.717354,3.87623 M 6.5117009,24.701671 c 0.861084,-1.32448 1.918622,-2.42189 3.06036,-3.08038 l 0.242913,-0.13953 -0.241946,0.13977 c -1.142465,0.65922 -2.199763,1.75639 -3.061327,3.08014 M 40.66317,13.549011 c 0,-0.003 -1.8e-4,-0.006 -1.8e-4,-0.009 0,0.003 1.8e-4,0.006 1.8e-4,0.009 v 0 m -1.8e-4,-0.0114 c 0,-0.003 0,-0.005 0,-0.007 0,0.003 0,0.005 0,0.007 m 0,-0.01 c 0,-0.003 0,-0.005 0,-0.008 0,0.003 0,0.005 0,0.008 m 0,-0.0116 c 0,-0.001 0,-0.003 0,-0.005 0,10e-4 0,0.003 0,0.005 m 0,-0.01 c 0,-0.001 0,-0.003 0,-0.004 0,0.001 0,0.003 0,0.004 m -1.8e-4,-0.0133 c 0,-6.9e-4 0,-10e-4 0,-0.002 0,4.9e-4 0,0.001 0,0.002 m -3.44735,-2.14863 c 0.0752,-0.54701 0.11831,-1.09064 0.12533,-1.6253095 l 2.14217,1.2362095 c -0.21726,-0.10665 -0.45824,-0.16203 -0.71712,-0.16203 -0.383,0 -0.80543,0.12116 -1.2494,0.3775 l -0.30098,0.17363 m 0.1263,-1.7665495 c 0,-0.004 0,-0.008 0,-0.0116 v 0 0 c 0,-0.25658 -0.008,-0.50614 -0.0247,-0.74796 0.0165,0.24182 0.0247,0.49114 0.0247,0.74796 0,0.004 0,0.008 0,0.0116 m -10.87421,-0.21514 c -0.0637,-2.26084 -0.65688,-4.03657 -1.62151,-5.20677 l 3.81305,2.21368 c -0.81681,0.85341 -1.55958,1.8744 -2.19154,2.99309 m 10.84904,-0.54919 c 0,-0.002 0,-0.003 -1.8e-4,-0.005 0,0.002 1.8e-4,0.003 1.8e-4,0.005 m -6.8e-4,-0.0155 c 0,-4.9e-4 0,-0.001 0,-0.001 0,4.9e-4 0,0.001 0,0.001 m -6.85315,-3.94419 c 0.11735,-0.0762 0.23517,-0.14873 0.35396,-0.2174 0.9194,-0.5313 1.79524,-0.7828 2.58906,-0.7828 0.16791,0 0.33195,0.0111 0.49211,0.0334 -0.15944,-0.022 -0.32299,-0.0331 -0.48994,-0.0331 -0.79405,0 -1.6699,0.2515 -2.59025,0.78255 -0.11904,0.0687 -0.23735,0.14123 -0.35494,0.2174 m 4.58001,-0.58618 c -1.7e-4,-2.4e-4 -6.8e-4,-4.9e-4 -6.8e-4,-7.6e-4 v 0 l 10e-4,7.6e-4 h -1.8e-4 m -10.44963,-0.45431 v 0 0 m 0.001,-9.6e-4 c 0.53203,-0.53903 1.09431,-1.00697 1.67668,-1.38446 -0.58189,0.37822 -1.1444,0.84567 -1.67668,1.38446 m -0.93004,-0.68147 c -0.004,-0.002 -0.008,-0.004 -0.0116,-0.007 l 0.0119,0.007 h -1.8e-4 m -0.082,-0.0472 c -0.0111,-0.006 -0.0223,-0.0126 -0.0334,-0.0184 l -3.90499,-2.24487 -1.7e-4,-0.001 3.93861,2.2647 m 7.30262,-1.21373 c -1.8e-4,0 -5.5e-4,-2.4e-4 -6.8e-4,-4.8e-4 l -0.001,-0.004 5.4e-4,2.4e-4 0.002,0.004 m -1.13327,-0.39587 c -0.17686,-0.0273 -0.35856,-0.0411 -0.54486,-0.0411 -0.17976,0 -0.36364,0.0128 -0.55115,0.0389 0.18751,-0.0261 0.37139,-0.0389 0.55115,-0.0389 0.1863,0 0.368,0.0138 0.54486,0.0411 m -10.10729,-0.65006 c -0.68398,-0.45294 -1.47538,-0.69138 -2.34444,-0.69138 -0.18122,0 -0.36606,0.0104 -0.55381,0.0314 0.18847,-0.0213 0.3738,-0.0317 0.55574,-0.0317 0.8681,0 1.65902,0.2382 2.34203,0.69065 l 5.4e-4,9.6e-4"
     style="display:inline;fill:#fae36f;fill-opacity:1;fill-rule:nonzero;stroke:#000000;stroke-width:0.264583;stroke-dasharray:none" />
  <path
     id="path33"
     d="m 28.65874,6.3701615 -3.81305,-2.21368 c -0.0905,-0.10978 -0.18412,-0.21425 -0.28114,-0.3134 0.01,-0.01 0.0191,-0.0193 0.0285,-0.029 v 0 c 5.4e-4,-2.4e-4 6.9e-4,-4.9e-4 10e-4,-9.6e-4 0.53228,-0.53879 1.0948,-1.00624 1.67668,-1.38446 0.11589,-0.0747 0.23227,-0.1463 0.34961,-0.21377 0.71083,-0.41038 1.39457,-0.65318 2.03499,-0.74217 0.18751,-0.0261 0.37139,-0.0389 0.55116,-0.0389 0.18629,0 0.36799,0.0138 0.54485,0.0411 0.40574,0.0626 0.78536,0.19636 1.13303,0.39611 v 0 0 l -5.4e-4,-7.5e-4 c 1.7e-4,2.4e-4 5.4e-4,4.8e-4 6.8e-4,4.8e-4 l -0.002,-0.004 4.15832,2.40061 v 0 c -0.35131,-0.19539 -0.73455,-0.32332 -1.14392,-0.3799 -0.16017,-0.0222 -0.3242,-0.0334 -0.49212,-0.0334 -0.79381,0 -1.66966,0.25149 -2.58905,0.78279 -0.1188,0.0687 -0.23662,0.14122 -0.35397,0.2174 -0.62905,0.40796 -1.23416,0.92112 -1.80345,1.51577"
     style="display:inline;fill:#f3bd5b;fill-opacity:1;fill-rule:nonzero;stroke:#000000;stroke-width:0.264583;stroke-dasharray:none" />
  <path
     id="path35"
     d="m 12.8312,9.3446315 -4.1943531,-2.42044 c 1.116821,-1.93751 2.4963891,-3.63248 4.0179721,-4.85418 0.449052,-0.35984 0.910195,-0.67857 1.380782,-0.95014 0.950118,-0.54822 1.862007,-0.85994 2.710989,-0.95497 0.18775,-0.021 0.37259,-0.0314 0.55381,-0.0314 0.86907,0 1.66046,0.23844 2.34444,0.69138 l -5.4e-4,-9.6e-4 c 1.8e-4,0 1.8e-4,2.4e-4 1.8e-4,2.4e-4 v 0 0 l -6.9e-4,-0.003 3.905,2.24488 c -0.61188,-0.33663 -1.29997,-0.51219 -2.04564,-0.51219 -0.23325,0 -0.47229,0.0172 -0.71617,0.052 -0.80471,0.11438 -1.66361,0.42102 -2.55614,0.93563 -2.064758,1.1922 -3.953622,3.29464 -5.399723,5.80311"
     style="display:inline;fill:#f3bd5b;fill-opacity:1;fill-rule:nonzero;stroke:#000000;stroke-width:0.264583;stroke-dasharray:none" />
  <path
     id="path36"
     d="m 4.8721169,27.635819 -3.9825225,-2.25195 c 0.8213395,-2.068776 1.8456887,-3.965011 3.3111515,-5.251531 0,0 0.857613,-0.769317 1.786107,-1.154565 1.076771,0.546782 3.962554,2.315988 3.962554,2.315988 l -0.134769,0.18766 -0.242913,0.13953 c -1.141738,0.65849 -2.199276,1.7559 -3.06036,3.08038"
     style="display:inline;fill:#f3bd5b;fill-opacity:1;fill-rule:nonzero;stroke:none;stroke-width:0.529167;stroke-dasharray:none" />
  <path
     id="path1-5"
     style="display:inline;fill:#ffffff;fill-opacity:1;fill-rule:nonzero;stroke:#000000;stroke-width:0.529167;stroke-dasharray:none"
     d="m 21.50335,2.5537315 c -1.00286,0 -2.10879,0.31761 -3.27158,0.98867 -4.552422,2.6272 -8.2428841,9.6750495 -8.2428841,15.7419895 0,0.71725 0.05336,1.3869 0.1520411,2.00888 l -0.5681181,0.32802 c -2.896317,1.67127 -5.244219,6.15524 -5.244219,10.01502 0,2.89345 1.319696,4.66231 3.20033,4.66248 0.260093,0 0.530741,-0.0339 0.810182,-0.10308 0.05905,-0.0148 0.118531,-0.031 0.178267,-0.0489 0.26154,-0.0779 0.530151,-0.18646 0.804516,-0.32696 0.05905,-0.0305 0.118532,-0.0622 0.178267,-0.0953 0.02414,-0.0135 0.04842,-0.0275 0.07266,-0.0415 l 0.7315021,-0.42225 0.178267,-0.10308 6.717509,-3.87608 20.31591,-11.72386 c 1.73788,-1.00285 3.14681,-3.69296 3.14681,-6.00893 0,-1.72447 -0.78107,-2.75491 -1.89715,-2.75491 -0.383,0 -0.8057,0.12093 -1.24966,0.37726 l -0.3009,0.17358 c 0.0825,-0.59901 0.12618,-1.19415 0.12618,-1.7779195 0,-3.5754 -1.61952,-5.71245 -3.93396,-5.71245 -0.79406,0 -1.66969,0.25147 -2.59005,0.78252 -1.6716,0.96464 -3.19572,2.68257 -4.35003,4.72624 -0.12025,-4.27065 -2.12926,-6.80952 -4.96388,-6.80952 z" />
  <path
     id="path40"
     d="m 15.427268,25.039651 1.899992,-1.0962 -0.95012,-3.20299 z m 1.899992,-7.9261 c 0.15629,-0.0902 0.27533,-0.10157 0.35783,-0.0343 0.0818,0.0673 0.13864,0.14921 0.16985,0.24545 l 2.55638,8.37082 c 0.0312,0.0863 0.0469,0.1555 0.0469,0.20749 0,0.0936 -0.0254,0.18887 -0.076,0.28633 -0.051,0.097 -0.11153,0.16565 -0.18193,0.20627 l -1.47756,0.85268 c -0.15654,0.0904 -0.26808,0.11052 -0.33437,0.06 -0.0665,-0.0498 -0.10766,-0.11221 -0.12315,-0.18669 l -0.32808,-1.10757 -3.119625,1.80016 -0.328319,1.48675 c -0.01598,0.0924 -0.05713,0.20217 -0.123154,0.32864 -0.0668,0.1272 -0.178068,0.23554 -0.334368,0.32574 l -1.477553,0.85269 c -0.07065,0.0406 -0.131137,0.0418 -0.181703,0.003 -0.05103,-0.0382 -0.07645,-0.10447 -0.07645,-0.19829 0,-0.052 0.01598,-0.13905 0.04691,-0.26166 l 2.556634,-11.3211 c 0.0312,-0.13277 0.08807,-0.28004 0.170085,-0.44206 0.08202,-0.16203 0.201057,-0.28802 0.357597,-0.37822 l 1.899986,-1.09644"
     style="display:inline;fill:#000000;fill-opacity:1;fill-rule:nonzero;stroke:none;stroke-width:0.0352777" />
  <path
     id="path41"
     d="m 23.57766,18.398371 1.44247,-0.83237 c 0.32832,-0.18959 0.59978,-0.44254 0.81487,-0.75957 0.21509,-0.3168 0.32275,-0.69404 0.32275,-1.13151 0,-0.43771 -0.10766,-0.69042 -0.32275,-0.75934 -0.21509,-0.0687 -0.48655,-0.009 -0.81487,0.18089 l -1.44247,0.83237 z m 1.50102,-5.75813 c 0.50035,-0.2885 0.94988,-0.47252 1.3486,-0.5516 0.39872,-0.0788 0.7389,-0.0457 1.02028,0.0987 0.28162,0.1451 0.49865,0.40288 0.65107,0.77336 0.15219,0.37072 0.22864,0.858 0.22864,1.46208 0,0.61496 -0.0765,1.19559 -0.22864,1.74188 -0.15242,0.54652 -0.36945,1.05194 -0.65107,1.51624 -0.28138,0.4648 -0.62156,0.89041 -1.02028,1.27661 -0.39872,0.38644 -0.84825,0.72427 -1.3486,1.01277 l -1.50102,0.86622 v 3.188 c 0,0.11487 -0.0312,0.23191 -0.0939,0.35162 -0.0624,0.11946 -0.13694,0.20386 -0.22283,0.25343 l -1.53611,0.88654 c -0.0864,0.0498 -0.1604,0.0508 -0.22307,0.003 -0.0627,-0.0472 -0.0936,-0.12792 -0.0936,-0.24279 v -10.09584 c 0,-0.11463 0.031,-0.23143 0.0936,-0.35089 0.0627,-0.11946 0.1367,-0.2041 0.22307,-0.25368 l 3.35384,-1.93558"
     style="display:inline;fill:#000000;fill-opacity:1;fill-rule:nonzero;stroke:none;stroke-width:0.0352777" />
  <path
     id="path42"
     d="m 29.76951,20.873461 c -0.0861,0.0498 -0.16017,0.0508 -0.22284,0.003 -0.0627,-0.0472 -0.0939,-0.12793 -0.0939,-0.2428 v -10.09582 c 0,-0.11487 0.0312,-0.23143 0.0939,-0.35089 0.0627,-0.11947 0.1367,-0.2040995 0.22284,-0.2536795 l 1.5361,-0.88653 c 0.0861,-0.0496 0.16042,-0.051 0.22283,-0.004 0.0627,0.0479 0.0941,0.12841 0.0941,0.24279 V 19.381781 c 0,0.11487 -0.0315,0.23192 -0.0941,0.35138 -0.0624,0.11946 -0.13669,0.20386 -0.22283,0.25343 l -1.5361,0.88653"
     style="display:inline;fill:#000000;fill-opacity:1;fill-rule:nonzero;stroke:none;stroke-width:0.0352777" />
  <circle
     style="opacity:0.768908;fill:#ff0000;fill-opacity:0.959459;stroke:none;stroke-width:0.529167;stroke-linecap:round;stroke-linejoin:round;stroke-miterlimit:4.1;stroke-dasharray:none"
     id="attach-point"
     cx="22.495701"
     cy="36.035221"
     r="0.45850143" />
</svg>
