<?xml version="1.0" encoding="UTF-8" standalone="no"?>
<!-- Created with Inkscape (http://www.inkscape.org/) -->

<svg
   width="110.24979mm"
   height="69.056213mm"
   viewBox="0 0 110.24979 69.056213"
   version="1.1"
   id="svg1"
   xmlns="http://www.w3.org/2000/svg"
   xmlns:svg="http://www.w3.org/2000/svg">
  <defs
     id="defs1" />
  <path
     style="fill:#fae36f;fill-opacity:1;stroke:#000000;stroke-width:0.264583px;stroke-linecap:round;stroke-linejoin:round;stroke-opacity:1"
     d="m 0.132278,51.726024 2.291361,-1.32291 4.582718,2.64583 -2.291361,1.32292 z"
     id="path185" />
  <path
     style="fill:#fae36f;fill-opacity:1;stroke:#000000;stroke-width:0.264583px;stroke-linecap:round;stroke-linejoin:round;stroke-opacity:1"
     d="m 9.297714,57.017694 2.291358,-1.32291 11.456798,6.61457 -2.29136,1.32291 z"
     id="path186" />
  <path
     style="fill:#000000;stroke:#000000;stroke-width:0.264583px;stroke-linecap:round;stroke-linejoin:round;stroke-opacity:1"
     d="m 4.714995,57.017694 v -2.64584 l 2.291361,-1.32291 v 2.64583 z"
     id="path188" />
  <path
     style="fill:#000000;stroke:#000000;stroke-width:0.264583px;stroke-linecap:round;stroke-linejoin:round;stroke-opacity:1"
     d="m 20.75451,63.632274 2.29136,-1.32292 v 5.29167 l -2.29136,1.32291 v -5.29166"
     id="path190" />
  <path
     id="path187"
     style="fill:#f3bd5b;fill-opacity:1;stroke:#000000;stroke-width:0.264583px;stroke-linecap:round;stroke-linejoin:round;stroke-opacity:1"
     d="m 0.132381,51.726024 v 5.29166 l 4.582666,2.64584 4.582666,2.64583 11.456667,6.61458 v -5.29166 L 9.297713,57.017684 v 2.64584 l -4.582666,-2.64584 v -2.64583 z" />
  <path
     style="fill:#fae36f;fill-opacity:1;stroke:#000000;stroke-width:0.264583px;stroke-linecap:butt;stroke-linejoin:miter;stroke-opacity:1"
     d="m 4.714995,57.017684 2.291361,-1.32291 2.291358,1.32292 v 2.64583 l -4.582719,-2.64584"
     id="path191" />
  <path
     style="fill:#fae36f;fill-opacity:1;stroke:#000000;stroke-width:0.264583px;stroke-linecap:round;stroke-linejoin:round;stroke-opacity:1"
     d="m 87.203915,1.455199 2.29136,-1.32291 4.58271,2.64583 -2.29136,1.32292 z"
     id="path192" />
  <path
     style="fill:#fae36f;fill-opacity:1;stroke:#000000;stroke-width:0.264583px;stroke-linecap:round;stroke-linejoin:round;stroke-opacity:1"
     d="m 96.369345,6.746874 2.29136,-1.322915 11.456795,6.614565 -2.29136,1.32292 z"
     id="path193" />
  <path
     style="fill:#000000;stroke:#000000;stroke-width:0.264583px;stroke-linecap:round;stroke-linejoin:round;stroke-opacity:1"
     d="M 91.786625,6.746874 V 4.101029 l 2.29136,-1.32291 v 2.64583 z"
     id="path194" />
  <path
     style="fill:#000000;stroke:#000000;stroke-width:0.264583px;stroke-linecap:round;stroke-linejoin:round;stroke-opacity:1"
     d="m 107.82614,13.361454 2.29136,-1.32293 v 5.29168 l -2.29136,1.32291 v -5.29166"
     id="path195" />
  <path
     id="path196"
     style="fill:#f3bd5b;fill-opacity:1;stroke:#000000;stroke-width:0.264583px;stroke-linecap:round;stroke-linejoin:round;stroke-opacity:1"
     d="m 87.204015,1.455199 v 5.291665 l 4.58267,2.64584 4.58266,2.64582 11.456675,6.61458 v -5.29166 L 96.369345,6.746854 v 2.64584 l -4.58266,-2.64584 V 4.101029 Z" />
  <path
     style="fill:#fae36f;fill-opacity:1;stroke:#000000;stroke-width:0.264583px;stroke-linecap:butt;stroke-linejoin:miter;stroke-opacity:1"
     d="m 91.786625,6.746864 2.29136,-1.322915 2.29136,1.322925 v 2.64583 l -4.58272,-2.64584"
     id="path197" />
  <path
     style="fill:#fae36f;fill-opacity:1;stroke:#000000;stroke-width:0.264583px;stroke-linecap:round;stroke-linejoin:round;stroke-opacity:1"
     d="m 78.038605,6.746864 2.29136,-1.322908 4.58272,2.645828 -2.29136,1.32292 z"
     id="path198" />
  <path
     style="fill:#fae36f;fill-opacity:1;stroke:#000000;stroke-width:0.264583px;stroke-linecap:round;stroke-linejoin:round;stroke-opacity:1"
     d="m 87.204045,12.038534 2.29135,-1.32291 11.456795,6.61457 -2.291355,1.32291 z"
     id="path199" />
  <path
     style="fill:#000000;stroke:#000000;stroke-width:0.264583px;stroke-linecap:round;stroke-linejoin:round;stroke-opacity:1"
     d="m 82.621325,12.038534 v -2.64584 l 2.29136,-1.32291 v 2.64583 z"
     id="path200" />
  <path
     style="fill:#000000;stroke:#000000;stroke-width:0.264583px;stroke-linecap:round;stroke-linejoin:round;stroke-opacity:1"
     d="m 98.660835,18.653114 2.291355,-1.32292 v 5.29167 l -2.291355,1.32291 v -5.29166"
     id="path201" />
  <path
     id="path202"
     style="fill:#f3bd5b;fill-opacity:1;stroke:#000000;stroke-width:0.264583px;stroke-linecap:round;stroke-linejoin:round;stroke-opacity:1"
     d="m 78.038705,6.746864 v 5.29166 l 4.58267,2.64584 4.58267,2.64583 11.45666,6.61458 v -5.29166 l -11.45666,-6.61459 v 2.64584 l -4.58267,-2.64584 v -2.64583 z" />
  <path
     style="fill:#fae36f;fill-opacity:1;stroke:#000000;stroke-width:0.264583px;stroke-linecap:butt;stroke-linejoin:miter;stroke-opacity:1"
     d="m 82.621325,12.038524 2.29136,-1.32291 2.29136,1.32292 v 2.64583 l -4.58272,-2.64584"
     id="path203" />
  <path
     style="fill:#fae36f;fill-opacity:1;stroke:#000000;stroke-width:0.264583px;stroke-linecap:round;stroke-linejoin:round;stroke-opacity:1"
     d="m 68.873165,12.038524 2.29137,-1.3229 4.58271,2.64583 -2.29136,1.32292 z"
     id="path204" />
  <path
     style="fill:#fae36f;fill-opacity:1;stroke:#000000;stroke-width:0.264583px;stroke-linecap:round;stroke-linejoin:round;stroke-opacity:1"
     d="m 78.038605,17.330204 2.29136,-1.32291 11.4568,6.61456 -2.29136,1.32291 z"
     id="path205" />
  <path
     style="fill:#000000;stroke:#000000;stroke-width:0.264583px;stroke-linecap:round;stroke-linejoin:round;stroke-opacity:1"
     d="m 73.455885,17.330204 v -2.64584 l 2.29136,-1.32291 v 2.64582 z"
     id="path206" />
  <path
     style="fill:#000000;stroke:#000000;stroke-width:0.264583px;stroke-linecap:round;stroke-linejoin:round;stroke-opacity:1"
     d="m 89.495405,23.944774 2.29136,-1.32292 v 5.29167 l -2.29136,1.32292 v -5.29167"
     id="path207" />
  <path
     id="path208"
     style="fill:#f3bd5b;fill-opacity:1;stroke:#000000;stroke-width:0.264583px;stroke-linecap:round;stroke-linejoin:round;stroke-opacity:1"
     d="m 68.873275,12.038524 v 5.29167 l 4.58266,2.64583 4.58267,2.64583 11.45667,6.61458 v -5.29166 l -11.45667,-6.61459 v 2.64584 l -4.58267,-2.64584 v -2.64583 z" />
  <path
     style="fill:#fae36f;fill-opacity:1;stroke:#000000;stroke-width:0.264583px;stroke-linecap:butt;stroke-linejoin:miter;stroke-opacity:1"
     d="m 73.455885,17.330194 2.29136,-1.32292 2.29136,1.32293 v 2.64582 l -4.58272,-2.64583"
     id="path209" />
  <path
     style="fill:#fae36f;fill-opacity:1;stroke:#000000;stroke-width:0.264583px;stroke-linecap:round;stroke-linejoin:round;stroke-opacity:1"
     d="m 59.707605,17.330194 2.29136,-1.32291 4.58272,2.64583 -2.29136,1.32292 z"
     id="path210" />
  <path
     style="fill:#fae36f;fill-opacity:1;stroke:#000000;stroke-width:0.264583px;stroke-linecap:round;stroke-linejoin:round;stroke-opacity:1"
     d="m 68.873035,22.621864 2.29136,-1.32291 11.4568,6.61457 -2.29136,1.32291 z"
     id="path211" />
  <path
     style="fill:#000000;stroke:#000000;stroke-width:0.264583px;stroke-linecap:round;stroke-linejoin:round;stroke-opacity:1"
     d="m 64.290325,22.621864 v -2.64584 l 2.29136,-1.32291 v 2.64583 z"
     id="path212" />
  <path
     style="fill:#000000;stroke:#000000;stroke-width:0.264583px;stroke-linecap:round;stroke-linejoin:round;stroke-opacity:1"
     d="m 80.329835,29.236444 2.29136,-1.32292 v 5.29167 l -2.29136,1.32291 v -5.29166"
     id="path213" />
  <path
     id="path214"
     style="fill:#f3bd5b;fill-opacity:1;stroke:#000000;stroke-width:0.264583px;stroke-linecap:round;stroke-linejoin:round;stroke-opacity:1"
     d="m 59.707705,17.330194 v 5.29166 l 4.58267,2.64584 4.58266,2.64583 11.45667,6.61458 v -5.29166 l -11.45667,-6.61459 v 2.64584 l -4.58266,-2.64584 v -2.64583 z" />
  <path
     style="fill:#fae36f;fill-opacity:1;stroke:#000000;stroke-width:0.264583px;stroke-linecap:butt;stroke-linejoin:miter;stroke-opacity:1"
     d="m 64.290325,22.621854 2.29136,-1.32291 2.29135,1.32292 v 2.64583 l -4.58271,-2.64584"
     id="path215" />
  <path
     style="fill:#fae36f;fill-opacity:1;stroke:#000000;stroke-width:0.264583px;stroke-linecap:round;stroke-linejoin:round;stroke-opacity:1"
     d="m 50.542169,22.621864 2.291361,-1.32291 4.582718,2.64583 -2.291361,1.32292 z"
     id="path216" />
  <path
     style="fill:#fae36f;fill-opacity:1;stroke:#000000;stroke-width:0.264583px;stroke-linecap:round;stroke-linejoin:round;stroke-opacity:1"
     d="m 59.707605,27.913534 2.29136,-1.32291 11.4568,6.61456 -2.29136,1.32291 z"
     id="path217" />
  <path
     style="fill:#000000;stroke:#000000;stroke-width:0.264583px;stroke-linecap:round;stroke-linejoin:round;stroke-opacity:1"
     d="m 55.124886,27.913534 v -2.64584 l 2.291361,-1.32291 v 2.64583 z"
     id="path218" />
  <path
     style="fill:#000000;stroke:#000000;stroke-width:0.264583px;stroke-linecap:round;stroke-linejoin:round;stroke-opacity:1"
     d="m 71.164405,34.528104 2.29136,-1.32292 v 5.29167 l -2.29136,1.32291 v -5.29166"
     id="path219" />
  <path
     id="path220"
     style="fill:#f3bd5b;fill-opacity:1;stroke:#000000;stroke-width:0.264583px;stroke-linecap:round;stroke-linejoin:round;stroke-opacity:1"
     d="m 50.542272,22.621864 v 5.29166 l 4.582666,2.64584 4.582667,2.64582 11.45667,6.61458 v -5.29166 l -11.45667,-6.61459 v 2.64584 l -4.582667,-2.64584 v -2.64583 z" />
  <path
     style="fill:#fae36f;fill-opacity:1;stroke:#000000;stroke-width:0.264583px;stroke-linecap:butt;stroke-linejoin:miter;stroke-opacity:1"
     d="m 55.124886,27.913524 2.291361,-1.32291 2.291358,1.32292 v 2.64583 l -4.582719,-2.64584"
     id="path221" />
  <path
     style="fill:#fae36f;fill-opacity:1;stroke:#000000;stroke-width:0.264583px;stroke-linecap:round;stroke-linejoin:round;stroke-opacity:1"
     d="m 41.376733,27.913524 2.291361,-1.32291 4.582718,2.64583 -2.291361,1.32292 z"
     id="path222" />
  <path
     style="fill:#fae36f;fill-opacity:1;stroke:#000000;stroke-width:0.264583px;stroke-linecap:round;stroke-linejoin:round;stroke-opacity:1"
     d="m 50.542169,33.205194 2.291358,-1.32291 11.456798,6.61457 -2.29136,1.32291 z"
     id="path223" />
  <path
     style="fill:#000000;stroke:#000000;stroke-width:0.264583px;stroke-linecap:round;stroke-linejoin:round;stroke-opacity:1"
     d="m 45.95945,33.205194 v -2.64584 l 2.291361,-1.32291 v 2.64583 z"
     id="path224" />
  <path
     style="fill:#000000;stroke:#000000;stroke-width:0.264583px;stroke-linecap:round;stroke-linejoin:round;stroke-opacity:1"
     d="m 61.998965,39.819774 2.29136,-1.32292 v 5.29167 l -2.29136,1.32291 v -5.29166"
     id="path225" />
  <path
     id="path226"
     style="fill:#f3bd5b;fill-opacity:1;stroke:#000000;stroke-width:0.264583px;stroke-linecap:round;stroke-linejoin:round;stroke-opacity:1"
     d="m 41.376836,27.913524 v 5.29166 l 4.582666,2.64584 4.582666,2.64583 11.456667,6.61458 v -5.29166 l -11.456667,-6.61459 v 2.64584 l -4.582666,-2.64584 v -2.64583 z" />
  <path
     style="fill:#fae36f;fill-opacity:1;stroke:#000000;stroke-width:0.264583px;stroke-linecap:butt;stroke-linejoin:miter;stroke-opacity:1"
     d="m 45.95945,33.205184 2.291361,-1.32291 2.291358,1.32292 v 2.64583 l -4.582719,-2.64584"
     id="path227" />
  <path
     style="fill:#fae36f;fill-opacity:1;stroke:#000000;stroke-width:0.264583px;stroke-linecap:round;stroke-linejoin:round;stroke-opacity:1"
     d="m 32.211299,33.205194 2.291361,-1.32291 4.582718,2.64583 -2.291361,1.32292 z"
     id="path228" />
  <path
     style="fill:#fae36f;fill-opacity:1;stroke:#000000;stroke-width:0.264583px;stroke-linecap:round;stroke-linejoin:round;stroke-opacity:1"
     d="m 41.376735,38.496864 2.291358,-1.32291 11.456798,6.61457 -2.29136,1.32291 z"
     id="path229" />
  <path
     style="fill:#000000;stroke:#000000;stroke-width:0.264583px;stroke-linecap:round;stroke-linejoin:round;stroke-opacity:1"
     d="m 36.794016,38.496864 v -2.64584 l 2.291361,-1.32291 v 2.64583 z"
     id="path230" />
  <path
     style="fill:#000000;stroke:#000000;stroke-width:0.264583px;stroke-linecap:round;stroke-linejoin:round;stroke-opacity:1"
     d="m 52.833531,45.111444 2.29136,-1.32292 v 5.29167 l -2.29136,1.32291 v -5.29166"
     id="path231" />
  <path
     id="path232"
     style="fill:#f3bd5b;fill-opacity:1;stroke:#000000;stroke-width:0.264583px;stroke-linecap:round;stroke-linejoin:round;stroke-opacity:1"
     d="m 32.211402,33.205194 v 5.29166 l 4.582666,2.64584 4.582666,2.64583 11.456667,6.61458 v -5.29166 l -11.456667,-6.61459 v 2.64584 l -4.582666,-2.64584 v -2.64583 z" />
  <path
     style="fill:#fae36f;fill-opacity:1;stroke:#000000;stroke-width:0.264583px;stroke-linecap:butt;stroke-linejoin:miter;stroke-opacity:1"
     d="m 36.794016,38.496854 2.291361,-1.32291 2.291358,1.32292 v 2.64583 l -4.582719,-2.64584"
     id="path233" />
  <path
     style="fill:#fae36f;fill-opacity:1;stroke:#000000;stroke-width:0.264583px;stroke-linecap:round;stroke-linejoin:round;stroke-opacity:1"
     d="m 9.297841,46.434354 2.291361,-1.32291 4.582718,2.64583 -2.291361,1.32292 z"
     id="path240" />
  <path
     style="fill:#fae36f;fill-opacity:1;stroke:#000000;stroke-width:0.264583px;stroke-linecap:round;stroke-linejoin:round;stroke-opacity:1"
     d="m 18.463277,51.726024 2.291358,-1.32291 11.456798,6.61457 -2.29136,1.32291 z"
     id="path241" />
  <path
     style="fill:#000000;stroke:#000000;stroke-width:0.264583px;stroke-linecap:round;stroke-linejoin:round;stroke-opacity:1"
     d="m 13.880558,51.726024 v -2.64584 l 2.291361,-1.32291 v 2.64583 z"
     id="path242" />
  <path
     style="fill:#000000;stroke:#000000;stroke-width:0.264583px;stroke-linecap:round;stroke-linejoin:round;stroke-opacity:1"
     d="m 29.920073,58.340604 2.29136,-1.32292 v 5.29167 l -2.29136,1.32291 v -5.29166"
     id="path243" />
  <path
     id="path244"
     style="fill:#f3bd5b;fill-opacity:1;stroke:#000000;stroke-width:0.264583px;stroke-linecap:round;stroke-linejoin:round;stroke-opacity:1"
     d="m 9.297944,46.434354 v 5.29166 l 4.582666,2.64584 4.582666,2.64583 11.456667,6.61458 v -5.29166 l -11.456667,-6.61459 v 2.64584 l -4.582666,-2.64584 v -2.64583 z" />
  <path
     style="fill:#fae36f;fill-opacity:1;stroke:#000000;stroke-width:0.264583px;stroke-linecap:butt;stroke-linejoin:miter;stroke-opacity:1"
     d="m 13.880558,51.726014 2.291361,-1.32291 2.291358,1.32292 v 2.64583 l -4.582719,-2.64584"
     id="path245" />
  <circle
     style="display:inline;fill:#ff0000;stroke-width:0.529168;stroke-linecap:round;stroke-miterlimit:4.1;stroke-dasharray:none"
     id="attach-point"
     cx="55.504642"
     cy="41.010693"
     r="0.83869553" />
</svg>
