<?xml version="1.0" encoding="UTF-8" standalone="no"?>
<svg
   width="44.627586mm"
   height="62.624046mm"
   viewBox="0 0 44.627588 62.624044"
   version="1.1"
   id="svg1"
   xmlns="http://www.w3.org/2000/svg"
   xmlns:svg="http://www.w3.org/2000/svg">
  <defs
     id="defs1" />
  <path
     id="path1000-9"
     d="m 42.687462,34.712872 1.686541,-0.972485 v 14.5872 l -4.827969,2.783781 V 39.529863 l 3.141428,-4.816991"
     style="fill:#000000;fill-opacity:1;fill-rule:nonzero;stroke:none;stroke-width:0.0352776" />
  <path
     id="path1001-7"
     d="m 35.959114,30.865801 6.728348,3.847071 -3.141428,4.816991 -6.723249,-3.881853 3.136329,-4.782209"
     style="fill:#f3bd5b;fill-opacity:1;fill-rule:nonzero;stroke:#000000;stroke-width:0.264582;stroke-dasharray:none" />
  <path
     id="path1003-5"
     d="m 41.616984,50.118101 1.714973,-0.989022 v -3.0965 l -1.714973,0.988613 v 3.096909"
     style="fill:#f3bd5b;fill-opacity:1;fill-rule:nonzero;stroke:none;stroke-width:0.0352776" />
  <path
     id="path1004-9"
     d="m 41.712875,48.029732 1.523202,-0.878708 v -0.890168 l -1.523202,0.878285 v 0.890591"
     style="fill:#ffffff;fill-opacity:1;fill-rule:nonzero;stroke:none;stroke-width:0.0352776" />
  <path
     id="path1008-5"
     d="m 43.738,37.98883 v -0.823129 l -1.092536,0.62966 V 38.61849 L 43.738,37.98883"
     style="fill:#ffffff;fill-opacity:1;fill-rule:nonzero;stroke:none;stroke-width:0.0352776" />
  <path
     id="path1009-7"
     d="m 43.738,39.583759 v -0.823131 l -1.092536,0.629648 v 0.823131 L 43.738,39.583759"
     style="fill:#ffffff;fill-opacity:1;fill-rule:nonzero;stroke:none;stroke-width:0.0352776" />
  <path
     id="path1010-4"
     d="m 43.738,41.178254 v -0.82313 l -1.092536,0.630069 v 0.82313 L 43.738,41.178254"
     style="fill:#ffffff;fill-opacity:1;fill-rule:nonzero;stroke:none;stroke-width:0.0352776" />
  <path
     id="path1011-5"
     d="m 43.738,42.77317 v -0.823131 l -1.092536,0.629648 v 0.823131 L 43.738,42.77317"
     style="fill:#ffffff;fill-opacity:1;fill-rule:nonzero;stroke:none;stroke-width:0.0352776" />
  <path
     id="path1012-8"
     d="m 43.738,44.367652 v -0.822696 l -1.092536,0.629648 v 0.823129 L 43.738,44.367652"
     style="fill:#ffffff;fill-opacity:1;fill-rule:nonzero;stroke:none;stroke-width:0.0352776" />
  <path
     id="path1013-7"
     d="m 35.959114,30.865801 1.690364,-1.01576 6.71435,3.890346 -1.676366,0.972485 -6.728348,-3.847071"
     style="fill:#fae36f;fill-opacity:1;fill-rule:nonzero;stroke:#000000;stroke-width:0.264582;stroke-dasharray:none" />
  <path
     id="path1017-9"
     d="m 35.72578,39.583739 v -0.82313 l 1.092115,0.629651 v 0.823129 l -1.092115,-0.62965"
     style="fill:url(#linearGradient1018);fill-opacity:1;fill-rule:nonzero;stroke:none;stroke-width:0.0352779"
     clip-path="url(#clipPath1018)" />
  <path
     id="path1021-6"
     d="m 18.028308,12.021247 c 0.02376,-0.469266 0.04709,-0.938532 0.07044,-1.408229 -0.02714,0.547333 0.309729,1.099768 1.015745,1.524905 1.397602,0.840954 3.710815,0.864287 5.167397,0.0522 0.778566,-0.43405 1.154484,-1.019149 1.122663,-1.598308 l 0.07807,1.407809 c 0.03309,0.590608 -0.350887,1.188011 -1.145154,1.630975 -1.486275,0.828649 -3.846588,0.804884 -5.272618,-0.0534 -0.720438,-0.433625 -1.064534,-0.997521 -1.036532,-1.555883"
     style="fill:#fffefc;fill-opacity:1;fill-rule:nonzero;stroke:#000000;stroke-width:0.264582;stroke-dasharray:none" />
  <path
     id="path1022-8"
     d="m 17.202221,28.556371 c 0.275362,-5.511996 0.550721,-11.023128 0.826087,-16.535124 -0.028,0.558375 0.316093,1.122259 1.036533,1.555887 1.426029,0.858346 3.786342,0.882099 5.272618,0.0534 0.794267,-0.442961 1.178247,-1.040364 1.145154,-1.630985 0.306758,5.51029 0.613096,11.019314 0.919854,16.529604 0.04073,0.729365 -0.432771,1.466357 -1.413726,2.013272 -1.834195,1.022553 -4.747352,0.993279 -6.506869,-0.06578 -0.889309,-0.535451 -1.314018,-1.2313 -1.279651,-1.920349"
     style="fill:#f3bd5b;fill-opacity:1;fill-rule:nonzero;stroke:#000000;stroke-width:0.264582;stroke-dasharray:none" />
  <path
     id="path1023-5"
     d="m 18.098738,10.613018 c 0.04455,-0.8922871 0.0891,-1.784574 0.133655,-2.6772934 -0.02631,0.5265517 0.29785,1.0577681 0.97671,1.4663577 1.343295,0.8082757 3.567408,0.8307667 4.967132,0.050036 0.748867,-0.4175011 1.11036,-0.9796875 1.079389,-1.5367884 l 0.148919,2.6764381 c 0.03182,0.579159 -0.344097,1.16427 -1.122663,1.59832 -1.456582,0.81209 -3.769795,0.788756 -5.167399,-0.0522 -0.706014,-0.425149 -1.042896,-0.97757 -1.015743,-1.524917"
     style="fill:#f3bd5b;fill-opacity:1;fill-rule:nonzero;stroke:#000000;stroke-width:0.264582;stroke-dasharray:none" />
  <path
     id="path1024-2"
     d="m 18.232389,7.9357246 0.08147,-1.628856 c -0.02546,0.5133938 0.290213,1.0314526 0.952949,1.4302876 1.310199,0.7883351 3.479578,0.8104045 4.845361,0.048826 0.730198,-0.4073134 1.08278,-0.9559226 1.052655,-1.4990238 l 0.09081,1.6284363 C 25.286578,8.472074 24.925105,9.0346826 24.176662,9.4521836 22.776514,10.232881 20.552401,10.210391 19.209105,9.4021473 18.529822,8.9935586 18.20609,8.4623409 18.232396,7.9357905"
     style="fill:#fffefc;fill-opacity:1;fill-rule:nonzero;stroke:#000000;stroke-width:0.264582;stroke-dasharray:none" />
  <path
     id="path1025-8"
     d="m 18.313854,6.3068686 c 0.06491,-1.2991915 0.129831,-2.5979486 0.194747,-3.8971401 -0.02419,0.4828567 0.272815,0.9695137 0.895246,1.3441734 1.231706,0.7416575 3.270831,0.7620191 4.554726,0.046178 0.686494,-0.3827066 1.017862,-0.8986486 0.989437,-1.409072 0.07214,1.2987585 0.144682,2.5970948 0.216809,3.8958654 0.03014,0.5430878 -0.322457,1.0916969 -1.052655,1.4990225 C 22.746381,8.5474936 20.577001,8.5254364 19.266803,7.737069 18.604488,7.3382353 18.288396,6.8201753 18.313854,6.3067815"
     style="fill:#f3bd5b;fill-opacity:1;fill-rule:nonzero;stroke:#000000;stroke-width:0.264582;stroke-dasharray:none" />
  <path
     id="path1026-3"
     d="M 24.0447,0.70577444 C 25.27259,1.4444735 25.230162,2.6223101 23.9505,3.335968 22.670429,4.0496271 20.637666,4.0288312 19.409779,3.28979 18.181891,2.5510908 18.22432,1.3732543 19.503979,0.65959644 c 1.279651,-0.7132383 3.312837,-0.6928753 4.540722,0.046191"
     style="fill:#f8fdff;fill-opacity:1;fill-rule:nonzero;stroke:#000000;stroke-width:0.264582;stroke-dasharray:none" />
  <path
     id="path1027-9"
     d="m 23.437972,1.0439307 c 0.906278,0.5456507 0.875303,1.4150251 -0.06958,1.9415769 -0.944886,0.5269713 -2.445591,0.511686 -3.351868,-0.033914 -0.906279,-0.5452177 -0.875306,-1.4146041 0.06958,-1.9415768 0.944465,-0.52653836 2.44517,-0.51169676 3.351873,0.033914"
     style="fill:#000000;fill-opacity:1;fill-rule:nonzero;stroke:none;stroke-width:0.0352776" />
  <path
     id="path1028-3"
     d="m 18.517088,2.4674354 -0.0013,-0.4603529 c 0.0013,0.4624817 0.298273,0.9241095 0.893972,1.2826408 1.227888,0.7391079 3.26065,0.7599038 4.540722,0.046177 0.658496,-0.3674427 0.98944,-0.8575031 0.988169,-1.3475635 l 0.0013,0.4603652 c 0.0013,0.4900603 -0.32967,0.9796877 -0.988167,1.3471317 C 22.672133,4.5094914 20.638951,4.4891299 19.411062,3.7500057 18.815361,3.3914744 18.518363,2.9294258 18.51709,2.4673636"
     style="fill:#000000;fill-opacity:1;fill-rule:nonzero;stroke:none;stroke-width:0.0352776" />
  <path
     id="path1038-9"
     d="m 5.2203449,21.540684 c 0.032664,-0.654676 0.065339,-1.309367 0.098003,-1.964054 -0.03819,0.763305 0.4319285,1.533817 1.4166964,2.126566 1.9483287,1.172737 5.1746107,1.204983 7.2052467,0.07301 1.086176,-0.605894 1.610594,-1.421808 1.565621,-2.229243 l 0.109053,1.963202 c 0.04583,0.823983 -0.489206,1.656446 -1.597019,2.274645 C 11.945731,24.940154 8.6536856,24.907056 6.665899,23.71012 5.6607612,23.1055 5.1813186,22.31928 5.2203516,21.540712"
     style="fill:#fffefc;fill-opacity:1;fill-rule:nonzero;stroke:none;stroke-width:0.0352776" />
  <path
     id="path1040-0"
     d="m 12.860912,20.074327 0.250331,-0.145529 -0.0016,0.608432 -0.250328,0.14553 0.0016,-0.608433"
     style="fill:#f7ece6;fill-opacity:1;fill-rule:nonzero;stroke:none;stroke-width:0.0352776" />
  <path
     id="path1128"
     d="M 39.543918,51.079977 19.839165,62.491763 19.837427,47.875291 39.543876,36.491504 v 14.588473"
     style="fill:#000000;fill-opacity:1;fill-rule:nonzero;stroke:#000000;stroke-width:0.264582;stroke-linejoin:round;stroke-dasharray:none" />
  <path
     id="path1131"
     d="M 19.839165,47.529918 0.132291,36.519082 19.839165,24.773801 39.545613,36.145288 19.839165,47.529918"
     style="display:inline;fill:#ffffff;fill-opacity:1;fill-rule:nonzero;stroke:#000000;stroke-width:0.264582;stroke-linejoin:round;stroke-dasharray:none" />
  <path
     id="path1132"
     d="m 19.839165,25.759011 v 0 10.446521 l 16.650606,0.829252 0.214191,-0.08263 1.169521,-0.716005 0.07325,-0.0445 L 19.8391,25.758984"
     style="display:inline;fill:#f3bd5b;fill-opacity:1;fill-rule:nonzero;stroke:#000000;stroke-width:0.264582;stroke-linejoin:round;stroke-dasharray:none" />
  <path
     id="path1133"
     d="m 19.839165,25.759011 -17.9906308,10.387118 -0.086237,0.14037 1.2967253,0.692539 1.2058267,-0.832487 15.5743138,0.05894 V 25.758968"
     style="display:inline;fill:#000000;fill-opacity:1;fill-rule:nonzero;stroke:none;stroke-width:0.0352776" />
  <path
     id="path1134"
     d="M 3.0552068,37.006015 19.751338,27.364799 36.625243,37.006447 19.952205,46.400431 3.1939597,36.952048"
     style="fill:#fae36f;fill-opacity:1;fill-rule:nonzero;stroke:#000000;stroke-width:0.264582;stroke-dasharray:none" />
  <path
     id="path1136"
     d="M 20.739503,29.505511 7.582353,24.660518 v 12.491615 l 13.15715,7.600788 v -15.24741"
     style="fill:#f3bd5b;fill-opacity:1;fill-rule:nonzero;stroke:#000000;stroke-width:0.264582;stroke-linejoin:round;stroke-dasharray:none" />
  <path
     id="path1139"
     d="m 8.3486159,28.882237 v -2.41593 l 2.0437931,1.180386 v 2.415918 L 8.3486159,28.882237"
     style="fill:#fae36f;fill-opacity:1;fill-rule:nonzero;stroke:#000000;stroke-width:0.264582;stroke-linecap:round;stroke-linejoin:round;stroke-dasharray:none" />
  <path
     id="path1141"
     d="m 14.736686,32.572739 v -2.415932 l 2.043792,1.180388 v 2.416351 l -2.043792,-1.180807"
     style="fill:#fae36f;fill-opacity:1;fill-rule:nonzero;stroke:#000000;stroke-width:0.264582;stroke-linecap:round;stroke-linejoin:round;stroke-dasharray:none" />
  <path
     id="path1143"
     d="m 11.54265,30.727475 v -2.416338 l 2.043792,1.181227 v 2.415931 L 11.54265,30.727487"
     style="fill:#fae36f;fill-opacity:1;fill-rule:nonzero;stroke:#000000;stroke-width:0.264582;stroke-linecap:round;stroke-linejoin:round;stroke-dasharray:none" />
  <path
     id="path1145"
     d="m 17.930721,34.417989 v -2.416351 l 2.043793,1.180807 v 2.41635 l -2.043793,-1.180806"
     style="fill:#fae36f;fill-opacity:1;fill-rule:nonzero;stroke:#000000;stroke-width:0.264582;stroke-linecap:round;stroke-linejoin:round;stroke-dasharray:none" />
  <path
     id="path1147"
     d="m 8.3486159,32.771728 v -2.41635 l 2.0437931,1.180808 v 2.416349 L 8.3486159,32.771728"
     style="fill:#fae36f;fill-opacity:1;fill-rule:nonzero;stroke:#000000;stroke-width:0.264582;stroke-linecap:round;stroke-linejoin:round;stroke-dasharray:none" />
  <path
     id="path1149"
     d="m 14.736686,36.462228 v -2.41635 l 2.043792,1.180809 v 2.415928 l -2.043792,-1.180387"
     style="fill:#fae36f;fill-opacity:1;fill-rule:nonzero;stroke:#000000;stroke-width:0.264582;stroke-linecap:round;stroke-linejoin:round;stroke-dasharray:none" />
  <path
     id="path1151"
     d="M 11.54265,34.616979 V 32.20105 l 2.043792,1.180385 v 2.415931 L 11.54265,34.616979"
     style="fill:#fae36f;fill-opacity:1;fill-rule:nonzero;stroke:#000000;stroke-width:0.264582;stroke-linecap:round;stroke-linejoin:round;stroke-dasharray:none" />
  <path
     id="path1153"
     d="m 17.930721,38.30748 v -2.416351 l 2.043793,1.180807 v 2.416351 L 17.930721,38.30748"
     style="fill:#fae36f;fill-opacity:1;fill-rule:nonzero;stroke:#000000;stroke-width:0.264582;stroke-linecap:round;stroke-linejoin:round;stroke-dasharray:none" />
  <path
     id="path1155"
     d="m 8.3486159,36.66122 v -2.415919 l 2.0437931,1.180808 v 2.415917 L 8.3486159,36.66122"
     style="fill:#fae36f;fill-opacity:1;fill-rule:nonzero;stroke:#000000;stroke-width:0.264582;stroke-linecap:round;stroke-linejoin:round;stroke-dasharray:none" />
  <path
     id="path1157"
     d="m 14.736686,40.35172 v -2.41635 l 2.043792,1.180818 v 2.415919 L 14.736686,40.35172"
     style="fill:#fae36f;fill-opacity:1;fill-rule:nonzero;stroke:#000000;stroke-width:0.264582;stroke-linecap:round;stroke-linejoin:round;stroke-dasharray:none" />
  <path
     id="path1159"
     d="M 11.54265,38.506469 V 36.09012 l 2.043792,1.180807 v 2.416349 L 11.54265,38.506469"
     style="fill:#fae36f;fill-opacity:1;fill-rule:nonzero;stroke:#000000;stroke-width:0.264582;stroke-linecap:round;stroke-linejoin:round;stroke-dasharray:none" />
  <path
     id="path1161"
     d="m 17.930721,42.19655 v -2.415919 l 2.043793,1.180796 v 2.415929 L 17.930721,42.19655"
     style="fill:#fae36f;fill-opacity:1;fill-rule:nonzero;stroke:#000000;stroke-width:0.264582;stroke-linecap:round;stroke-linejoin:round;stroke-dasharray:none" />
  <path
     id="path1162"
     d="m 20.739503,29.505944 9.611377,-5.549752 v 15.232545 l -9.611377,5.564604 V 29.505944"
     style="fill:#000000;fill-opacity:1;fill-rule:nonzero;stroke:none;stroke-width:0.0352776" />
  <path
     id="path1163"
     d="M 7.582353,24.660518 17.19331,18.84303 30.205809,23.895275 20.670487,29.445566 7.582353,24.660518"
     style="fill:#fae36f;fill-opacity:1;fill-rule:nonzero;stroke:#000000;stroke-width:0.264582;stroke-linecap:round;stroke-linejoin:round;stroke-dasharray:none" />
  <path
     id="path1433"
     d="M 0.132291,51.107976 19.839165,62.491763 V 47.903291 L 0.132291,36.519082 v 14.588894"
     style="fill:#f3bd5b;fill-opacity:1;fill-rule:nonzero;stroke:#000000;stroke-width:0.264582;stroke-linecap:round;stroke-linejoin:round;stroke-dasharray:none" />
  <path
     id="path1436"
     d="m 0.8607917,50.629799 v -6.22141 l 5.0918757,2.942047 v 6.22141 L 0.8607917,50.629799"
     style="fill:#fae36f;fill-opacity:1;fill-rule:nonzero;stroke:#000000;stroke-width:0.264582;stroke-linecap:round;stroke-linejoin:round;stroke-dasharray:none" />
  <path
     id="path1438"
     d="m 7.2768665,54.336427 v -6.221409 l 5.0922975,2.942047 v 6.220989 L 7.2768665,54.336427"
     style="fill:#fae36f;fill-opacity:1;fill-rule:nonzero;stroke:#000000;stroke-width:0.264582;stroke-linecap:round;stroke-linejoin:round;stroke-dasharray:none" />
  <path
     id="path1440"
     d="m 13.693364,58.043055 v -6.220988 l 5.091871,2.941195 v 6.221407 l -5.091871,-2.941614"
     style="fill:#fae36f;fill-opacity:1;fill-rule:nonzero;stroke:#000000;stroke-width:0.264582;stroke-linecap:round;stroke-linejoin:round;stroke-dasharray:none" />
  <path
     id="path1442"
     d="m 0.8752205,42.418884 v -1.29367 L 18.888763,51.531418 v 1.294103 L 0.8752205,42.418884"
     style="fill:#fae36f;fill-opacity:1;fill-rule:nonzero;stroke:#000000;stroke-width:0.264582;stroke-linecap:square;stroke-linejoin:round;stroke-dasharray:none" />
  <path
     id="path1444"
     d="M 0.8752205,39.7471 V 38.453009 L 18.888763,48.859225 v 1.294091 L 0.8752205,39.7471"
     style="fill:#fae36f;fill-opacity:1;fill-rule:nonzero;stroke:#000000;stroke-width:0.264582;stroke-linecap:square;stroke-linejoin:round;stroke-dasharray:none" />
  <circle
     style="display:inline;fill:#ff0000;stroke-width:0.529168;stroke-linecap:round;stroke-miterlimit:4.1;stroke-dasharray:none"
     id="attach-point"
     cx="19.839165"
     cy="48.741985"
     r="0.83869553" />
</svg>
