<?xml version="1.0" encoding="UTF-8" standalone="no"?>
<!-- Created with Inkscape (http://www.inkscape.org/) -->

<svg
   width="338.4046mm"
   height="220.71571mm"
   viewBox="0 0 338.4046 220.71571"
   version="1.1"
   id="svg1"
   xmlns="http://www.w3.org/2000/svg"
   xmlns:svg="http://www.w3.org/2000/svg">
  <defs
     id="defs1" />
  <path
     style="fill:#ffffff;fill-opacity:1;stroke:#000000;stroke-width:0.79375;stroke-linecap:butt;stroke-linejoin:miter;stroke-dasharray:none;stroke-opacity:1"
     d="m 691.89303,473.2466 3.04907,-1.94708 4.85397,-1.88652 2.14519,-1.70414 3.20972,-2.20377 3.48921,-2.02811 3.74352,-1.83073 2.75082,-2.20852 4.19766,-1.86094 2.94923,-1.69119 3.73196,-1.82846 3.20609,-1.81646 3.40413,-1.93084 2.8545,-2.69398 3.0276,-2.39545 4.11523,-1.94488 2.97992,-1.63767 3.42824,-1.88257 3.47525,-1.85676 5.24539,-1.82357 1.72056,-2.0259 3.33649,-1.76222 3.35452,-1.83946 4.49102,-1.6447 2.60166,-1.64407 3.33529,-2.0156 3.20111,-2.14427 3.16123,-2.1596 3.38357,-2.44523 3.16075,-1.91424 3.43854,-1.94241 3.20651,-2.52991 4.62689,-1.52902 2.81228,-1.27567 3.75412,-1.6358 4.20264,-1.80529 2.00178,-2.14928 3.83293,-1.95161 2.5484,-3.06473 c 1.06855,-0.23742 2.29636,-0.32648 3.39391,-0.37139 1.20064,0.0253 2.97602,0.0196 3.97976,0.2077 1.04891,0.19658 0.88402,0.31337 1.8501,0.87109 l 3.93151,2.16839 2.58363,1.47518 3.48996,2.01509 2.93076,1.1907 3.73317,2.01831 3.32415,1.51621 3.7656,1.79879 3.5769,1.19519 3.782,1.81388 3.58532,2.12689 5.05529,2.15766 2.6448,1.22973 2.55177,0.50593 3.91718,2.37215 3.75293,2.22305 2.86477,1.74304 4.27883,2.20576 2.57851,1.57328 4.25664,2.13781 2.49202,1.53002 3.00331,1.74004 4.19912,2.40453 2.9959,1.83517 3.46901,2.09322 3.52173,2.0733 3.94726,1.95141 1.96152,0.84062 3.96204,2.47128 2.84741,1.6561 4.87236,2.39556 3.54951,1.77239 2.28191,1.06387 3.30858,2.12884 4.08321,2.21948 2.6484,1.69058 3.28078,1.28336 3.76353,2.48211 3.54964,2.21747 2.73381,1.63095 3.22024,2.07486 4.70083,2.60958 2.0784,1.34778 3.15719,2.14143 3.39016,2.31084 3.25369,2.18007 3.52689,2.1803 2.46188,1.406 3.72884,2.26529 4.62455,2.61494 2.12612,0.75735 3.53215,2.55614 3.1293,2.37524 4.3104,2.61595 1.9503,1.56685 4.0867,2.80421 2.1522,1.82585 2.8514,1.52274 2.9218,2.89188 4.5172,3.08504 c 0.3133,0.54231 1.3457,1.74489 1.1694,2.7624 -0.1763,1.01751 -1.3497,1.94369 -2.3681,2.53165 l -2.9736,2.04011 -3.4239,2.20895 -3.4655,2.03234 -2.2804,2.10854 -3.1103,2.53824 -2.948,2.33169 -2.6515,2.53457 -4.2632,2.74357 -3.44267,2.11072 -3.69885,1.86939 -3.51924,1.6104 -2.88999,2.05946 -3.62103,2.07274 -3.87448,1.31329 -3.4316,1.767 -3.43888,1.83294 -3.68561,1.51752 -3.35333,1.83514 -3.27771,1.93553 -3.7131,1.78528 -2.93373,1.98798 -3.25984,2.17393 -2.97018,2.23577 -3.93141,2.04417 -1.83213,1.92144 -4.50958,2.49718 -3.81543,1.70148 -3.43284,1.67369 -3.46581,1.72964 -3.31764,1.83228 -3.64558,1.73466 -3.51182,1.57616 -3.7473,1.33381 -3.32471,1.85415 -3.53561,1.8396 -3.57077,1.59231 -3.43696,1.92597 -1.97815,2.193 c -1.36029,0.51073 -2.718,0.69999 -3.94521,0.86635 -1.27437,0.013 -1.68095,0.46065 -2.74237,0.31895 -1.08856,-0.14533 -3.18362,-1.25221 -4.14082,-1.80485 l -1.92224,-1.63095 -4.46976,-2.58117 -3.3823,-1.93992 -3.24602,-1.90204 -3.41765,-1.96325 -3.11446,-1.79744 -3.50913,-2.01154 -3.41342,-3.13051 -2.78888,-1.57936 -3.71655,-2.20005 -2.75092,-1.56906 -2.89786,-1.80465 -4.06065,-2.29946 -3.32641,-2.04305 -3.27984,-2.1745 -3.37217,-1.94586 -2.33276,-1.61947 -3.86172,-2.18871 -3.09217,-1.75997 -2.30722,-1.85912 -4.79937,-2.73491 -3.0817,-1.72104 -3.01327,-1.79721 -3.08327,-1.88837 -2.26722,-2.04501 -3.57272,-2.25915 -3.83293,-2.15502 -2.8924,-1.79991 -4.54774,-2.50035 -2.085,-1.56812 -4.5999,-2.78324 -3.14828,-1.75563 -2.80227,-1.61523 -2.5414,-1.84785 -4.37384,-2.32555 -3.1676,-1.64502 -3.95711,-2.73908 -2.77251,-1.41587 -3.12318,-1.59702 -3.43565,-1.76015 -3.96972,-2.09429 -2.96116,-1.51187 -3.60317,-1.8363 -2.9464,-1.55695 -3.0563,-1.94847 -4.44229,-2.47951 -2.86298,-1.42764 -3.10359,-1.55785 -3.52947,-1.8938 -2.86491,-1.56154 -4.39048,-2.24149 -3.38785,-1.93347 -3.35053,-2.10631 -3.38291,-1.49964 -2.97152,-1.39545 -3.71042,-1.62903 -3.78282,-2.41766 -3.07664,-0.97617 -3.89439,-1.25321 c -1.01439,-0.57892 -1.97347,-2.19628 -1.97249,-3.22299 9.7e-4,-1.02671 0.86486,-1.82009 1.88324,-2.40812 z"
     id="path477"
     transform="translate(-690.04666,-386.8048)" />
  <path
     id="path478"
     style="fill:#ffffff;fill-opacity:1;stroke:#000000;stroke-width:0.79375;stroke-linecap:butt;stroke-linejoin:miter;stroke-dasharray:none;stroke-opacity:1"
     d="m -0.02907665,92.070633 -0.32861179,2.169796 1.37252814,2.338938 c -0.0509324,0.17053 -0.2820692,0.21104 -0.0848716,0.472701 -0.0739034,0.137494 0.36726313,0.572618 0.92003963,1.00216 0.2088339,0.257824 1.0725324,0.793115 1.7703516,1.245966 0.5938763,0.390477 1.6563598,0.897986 2.4043166,1.340916 1.0171878,0.46812 0.9655761,0.55581 1.7113945,0.97466 0.574207,0.306 2.7045736,1.2275 3.7982616,1.81125 1.433066,0.50864 1.55782,0.82604 2.349013,1.24027 0.994748,0.51963 2.346271,1.10974 3.344044,1.6209 1.258749,0.53608 1.847325,0.92545 2.724284,1.36926 1.023144,0.49982 1.987536,0.97401 2.902151,1.43018 0.981504,0.46126 1.325747,0.4029 2.155205,0.80999 0.560651,0.0159 1.640787,0.72241 2.55395,1.18847 0.438763,0.13163 2.25643,0.87205 2.982835,1.25258 1.030675,0.23584 0.771261,0.44073 1.006242,0.61084 0.377679,0.27341 0.586191,0.46152 0.804836,0.51189 0,0 0.132621,0.0426 0.175238,0.0724 0.137426,0.0459 1.980229,0.0808 2.02257,0.11048 1.919462,0.0383 -0.233192,-0.56844 -0.233192,-0.56844 -0.233193,-0.56845 0.153344,0.0289 0.153344,0.0289 0.229802,0.0824 0.242881,0.14832 0.369402,0.23773 0.227614,0.13822 1.50652,0.43345 1.750057,0.60608 1.13952,0.17376 -0.02596,-0.0605 -0.02596,-0.0605 0.221173,0.11472 0.530934,0.34467 0.856942,0.57643 0.298012,0.17975 0.495195,0.33353 0.861779,0.59427 0.236834,0.14987 0.553837,0.43918 0.998373,0.75519 0.198826,0.1865 0.802995,0.34565 1.299189,0.69787 0.369882,0.0375 0.833118,0.62722 1.353271,0.99598 0.344299,0.27997 0.927014,0.66832 1.442013,1.03284 0.440383,0.32302 0.748366,0.27923 1.264372,0.64381 0.377266,0.0161 2.475169,1.0207 3.130832,1.48312 1.478117,0.31627 0.777915,0.4362 1.02746,0.61217 0.769168,0.43 1.511494,0.83283 2.014864,1.18767 0.983246,0.46025 2.076944,0.68071 2.53886,1.00625 1.525148,0.29169 0.267517,0.22593 0.623537,0.47697 0.331278,0.27106 1.96071,1.16683 2.763027,1.73278 0.96889,0.46741 0.746469,0.19271 1.318026,0.59595 0.475344,0.001 1.837376,1.25129 2.72062,1.87466 0.790691,0.51278 2.199818,0.95379 2.883523,1.43626 1.392157,0.38369 0.75328,0.61181 1.294089,0.99361 0.513719,0.4429 2.249721,1.3266 3.100425,1.92713 1.190202,0.57851 0.994891,0.76401 1.610849,1.19883 0.614022,0.4951 1.595694,1.15212 2.449989,1.75481 0.728253,0.53951 1.132681,0.64077 1.960656,1.22422 0.491654,0.18801 1.667185,1.18472 2.680299,1.89753 0.597682,0.43049 1.447394,0.88231 2.387077,1.54214 0.579142,0.2706 1.819507,1.07039 2.822276,1.77293 0.769193,0.33208 1.771121,0.68855 2.712511,1.34673 0.880052,0.0634 1.913847,1.07488 2.89748,1.76181 0.884643,0.35484 1.880921,1.29686 2.808149,1.94376 0.905878,0.61556 3.504807,1.33962 4.375492,1.94622 2.243794,0.45973 1.657224,0.70035 2.124935,1.02642 1.446023,0.55342 1.249135,0.26974 1.973681,0.77573 0.859797,-9.5e-4 2.065996,1.45141 3.127146,2.19512 0.86623,0.61427 2.23091,1.40098 3.14878,2.04552 1.19521,0.67542 1.52899,1.09212 2.32543,1.65218 0.85981,0.62261 2.76196,1.39905 3.68505,2.04855 1.60351,0.58436 1.38706,0.96837 2.0721,1.45105 0.9179,0.63874 2.77983,1.35482 3.68007,1.98969 1.65179,0.55997 1.31057,0.93431 1.98339,1.40973 0.87653,0.62892 1.50282,1.0939 2.41321,1.73811 0.67748,0.51104 2.54005,1.51257 3.53814,2.21865 1.29717,0.63275 1.68165,1.1299 2.43907,1.66576 1.00691,0.65242 2.02806,1.29762 2.86875,1.89185 1.1311,0.66259 2.13644,1.27229 2.92409,1.82827 1.28316,0.66865 2.62785,1.17889 3.3531,1.69028 1.75549,0.56277 0.79288,0.42976 1.37559,0.84149 0.63353,0.31832 2.15192,1.47325 3.14872,2.17911 0.94603,0.621 1.32898,0.94876 2.13442,1.51877 0.63939,0.45981 3.11672,1.39809 4.04351,2.05107 1.78343,0.45364 2.29054,0.94555 2.82565,1.32383 1.73097,0.55171 1.04443,0.48215 1.55622,0.84707 0.85784,0.35366 1.56884,1.15528 2.39084,1.74964 0.70068,0.53913 2.35129,1.21375 3.14982,1.79402 1.32235,0.46918 1.12968,0.82564 1.71923,1.25791 0.69737,0.51386 1.49177,0.56029 2.24015,1.10943 0.78653,0.0416 1.73083,1.24352 2.53891,1.84305 0.7573,0.52767 1.76,1.08879 2.4266,1.57919 0.9899,0.5135 1.01856,0.67048 1.58505,1.08321 0.58071,0.34319 1.21585,0.89639 1.92846,1.39827 0.48693,0.35205 2.66389,1.17558 3.392,1.65188 1.58667,0.41314 0.52311,0.34056 0.83482,0.55479 0.53515,0.36383 1.10863,0.82609 1.74941,1.24861 0.39625,0.30227 1.27924,0.80233 2.01409,1.16883 0.6042,0.30134 1.31493,0.58302 1.98193,0.80889 0.85725,0.76108 2.11216,1.51225 2.993,2.20879 1.17848,0.65131 1.14949,0.8489 1.95155,1.42496 0.59937,0.36858 2.07263,1.23882 3.12421,1.90772 0.90092,0.36715 3.13436,1.31572 4.05317,1.84473 1.80392,0.46705 0.97694,0.0571 1.48367,0.33672 0.87988,-0.0152 1.83425,0.93134 2.71577,1.39111 0.79964,0.34817 1.60808,0.82785 2.37176,1.20119 0.74976,0.36711 2.73361,0.90027 3.42863,1.21034 1.56202,0.32826 0.42243,0.18373 0.7022,0.30675 0.54287,0.23339 2.28707,0.77466 2.86077,0.99851 1.17257,0.28075 0.34166,0.12968 0.53523,0.20185 0.49273,0.17862 0.84127,-0.29654 1.22686,-0.27196 0.33348,0.0213 0.40638,0.37508 0.83431,0.25909 l 2.03385,-2.02915 1.02707,-1.95181 -0.0994,-2.33623 -0.0587,-1.97421 c -0.64891,0.31551 -1.15693,0.67582 -1.94474,0.91873 -0.61251,0.3338 -1.71062,0.48152 -2.64392,0.61738 -0.8159,0.14258 -0.61309,0.29345 -1.469,0.28705 0.14426,0.0957 -1.25213,-0.0335 -2.41644,-0.27583 -0.81218,-0.16902 -1.3995,-0.4936 -1.85206,-0.7549 l -0.46477,-1.17637 -3.04467,-1.89001 -2.29728,-1.40376 -2.50348,-1.42649 -2.22185,-1.33625 -1.50002,-1.02151 -2.4847,-1.47178 -2.64481,-1.68933 -1.81328,-1.05474 -2.14613,-1.23256 -2.42206,-1.45561 -1.89053,-1.08434 -2.03392,-1.20968 -2.50529,-1.4056 -1.60873,-1.03571 -2.11342,-1.32057 -1.82405,-1.2802 -2.80363,-1.5978 -0.55494,-1.16427 -3.20381,-1.88061 -2.56613,-1.43106 -2.07649,-1.16596 -2.15758,-1.21836 -2.01954,-1.17642 -2.38757,-1.34821 -2.18739,-1.30148 -2.36885,-1.4692 -1.8069,-1.04169 -2.30069,-1.28381 -2.31307,-1.36872 -2.09677,-1.16016 -0.83321,-1.10184 -3.24179,-1.87003 -1.44467,-1.00273 -3.19381,-1.87285 -0.32718,-0.7783 -3.31875,-1.84566 -2.2457,-1.23456 -2.11032,-1.2024 -2.28229,-1.2548 -1.97999,-1.13377 -2.36034,-1.30193 -2.27554,-1.99629 -1.85317,-1.00604 -2.57679,-1.39353 -1.65237,-0.93869 -1.74665,-1.16576 -2.905366,-1.54543 -2.197992,-1.27022 -2.176092,-1.3603 -2.294204,-1.21604 -1.218501,-0.98077 -2.723857,-1.48534 -1.949979,-1.11763 -1.149252,-1.21438 -3.66801,-1.91849 -1.971691,-1.03521 -1.877027,-1.11671 -1.945229,-1.22196 -1.125499,-1.35096 -2.478202,-1.62177 -2.691026,-1.47105 -1.742558,-1.16175 -3.403486,-1.66589 -0.971466,-0.90938 -3.492417,-1.84886 -2.084948,-1.02084 -1.68914,-0.93847 -1.410059,-1.15395 -3.273522,-1.55411 -2.03638,-0.97083 -2.808028,-1.6973 -1.761005,-0.80405 -1.975911,-0.94221 -2.278226,-1.078 -2.814395,-1.28886 -1.836059,-0.85728 -2.450944,-1.11025 -1.800397,-0.91084 -1.904228,-1.2095 -3.342326,-1.57556 -1.77216,-0.77877 L 21.335544,99.555366 18.959379,98.41997 17.218886,97.519921 13.953997,96.178338 11.682066,95.120884 9.4028709,94.00538 7.0263189,93.552239 c 0.4150647,0.509829 0.6677303,0.636447 0.1348926,0.417423 C 7.0339595,93.800822 5.7715714,93.203816 4.6929167,92.527696 3.9493079,91.96826 2.6051456,90.696599 1.8048604,90.085117 1.0437558,89.503572 0.88070112,89.588324 0.9051399,89.328245 l -0.24919834,1.550194 z" />
  <path
     id="path479"
     style="fill:#000000;stroke:#000000;stroke-width:0.79375;stroke-linecap:butt;stroke-linejoin:miter;stroke-dasharray:none;stroke-opacity:1"
     d="m 337.94274,129.12547 a 3.055023,3.055023 0 0 1 -1.4608,2.65306 l -126.02439,72.76042 v 7.9375 l 126.02439,-72.76042 c 0.8947,-0.54715 1.4462,-1.51502 1.4608,-2.56366 l 0.065,0.008 v -8.0269 z" />
  <circle
     style="fill:#ff0000;stroke:none;stroke-width:0.264583;stroke-linecap:round;stroke-miterlimit:4.1"
     id="attach-back-right"
     cx="260.86743"
     cy="63.341331"
     r="1.6773911" />
  <circle
     style="fill:#ff0000;stroke:none;stroke-width:0.264583;stroke-linecap:round;stroke-miterlimit:4.1"
     id="attach-back-left"
     cx="40.283016"
     cy="43.497581"
     r="1.6773911" />
  <circle
     style="fill:#ff0000;stroke:none;stroke-width:0.264583;stroke-linecap:round;stroke-miterlimit:4.1"
     id="attach-bottom"
     cx="167.53537"
     cy="204.40974"
     r="1.6773911" />
  <circle
     style="fill:#ff0000;stroke:none;stroke-width:0.264583;stroke-linecap:round;stroke-miterlimit:4.1"
     id="attach-front-left"
     cx="82.141457"
     cy="166.52882"
     r="1.6773911" />
  <circle
     style="fill:#ff0000;stroke:none;stroke-width:0.264583;stroke-linecap:round;stroke-miterlimit:4.1"
     id="attach-top"
     cx="167.53537"
     cy="-3.6142666"
     r="1.6773911" />
  <circle
     style="fill:#ff0000;stroke:none;stroke-width:0.264583;stroke-linecap:round;stroke-miterlimit:4.1"
     id="attach-front-right"
     cx="287.74979"
     cy="186.37257"
     r="1.6773911" />
  <circle
     style="fill:#ff0000;stroke:none;stroke-width:0.264583;stroke-linecap:round;stroke-miterlimit:4.1"
     id="attach-top-a1"
     cx="66.101936"
     cy="89.445198"
     r="1.6773911" />
  <circle
     style="fill:#ff0000;stroke:none;stroke-width:0.264583;stroke-linecap:round;stroke-miterlimit:4.1"
     id="attach-top-a2"
     cx="100.47232"
     cy="69.60144"
     r="1.6773911" />
  <circle
     style="fill:#ff0000;stroke:none;stroke-width:0.264583;stroke-linecap:round;stroke-miterlimit:4.1"
     id="attach-top-a3"
     cx="134.84274"
     cy="49.757717"
     r="1.6773911" />
  <circle
     style="fill:#ff0000;stroke:none;stroke-width:0.264583;stroke-linecap:round;stroke-miterlimit:4.1"
     id="attach-top-b1"
     cx="111.92912"
     cy="115.77987"
     r="1.6773911" />
  <circle
     style="fill:#ff0000;stroke:none;stroke-width:0.264583;stroke-linecap:round;stroke-miterlimit:4.1"
     id="attach-top-b2"
     cx="146.29951"
     cy="95.936104"
     r="1.6773911" />
  <circle
     style="fill:#ff0000;stroke:none;stroke-width:0.264583;stroke-linecap:round;stroke-miterlimit:4.1"
     id="attach-top-b3"
     cx="180.66992"
     cy="76.092369"
     r="1.6773911" />
  <circle
     style="fill:#ff0000;stroke:none;stroke-width:0.264583;stroke-linecap:round;stroke-miterlimit:4.1"
     id="attach-top-c1"
     cx="157.75632"
     cy="142.32689"
     r="1.6773911" />
  <circle
     style="fill:#ff0000;stroke:none;stroke-width:0.264583;stroke-linecap:round;stroke-miterlimit:4.1"
     id="attach-top-c2"
     cx="192.12669"
     cy="122.48313"
     r="1.6773911" />
  <circle
     style="fill:#ff0000;stroke:none;stroke-width:0.264583;stroke-linecap:round;stroke-miterlimit:4.1"
     id="attach-top-c3"
     cx="226.49709"
     cy="102.63939"
     r="1.6773911" />
  <circle
     style="fill:#ff0000;stroke:none;stroke-width:0.264583;stroke-linecap:round;stroke-miterlimit:4.1"
     id="attach-top-d1"
     cx="203.5835"
     cy="168.82019"
     r="1.6773911" />
  <circle
     style="fill:#ff0000;stroke:none;stroke-width:0.264583;stroke-linecap:round;stroke-miterlimit:4.1"
     id="attach-top-d2"
     cx="237.95386"
     cy="148.97643"
     r="1.6773911" />
  <circle
     style="fill:#ff0000;stroke:none;stroke-width:0.264583;stroke-linecap:round;stroke-miterlimit:4.1"
     id="attach-top-d3"
     cx="272.32425"
     cy="129.13269"
     r="1.6773911" />
</svg>
