<?xml version="1.0" encoding="UTF-8" standalone="no"?>
<!-- Created with Inkscape (http://www.inkscape.org/) -->

<svg
   width="49.252468mm"
   height="48.468445mm"
   viewBox="0 0 49.252468 48.468445"
   version="1.1"
   id="svg1"
   xmlns="http://www.w3.org/2000/svg"
   xmlns:svg="http://www.w3.org/2000/svg">
  <defs
     id="defs1" />
  <path
     id="path301"
     style="fill:#ffffff;stroke:#000000;stroke-width:0.793754;stroke-linecap:square;stroke-linejoin:round;stroke-dasharray:none"
     d="m 41.507485,24.200905 c -0.162623,0.08947 -0.35482,0.151929 -0.518825,0.238268 -0.215362,0.03087 -0.123999,0.182455 -0.279929,0.261207 -0.02589,0.12795 -0.469887,0.17192 -0.684255,0.27396 -0.204386,0.03633 -0.360403,0.123341 -0.521381,0.196645 -0.200299,0.0455 -0.323975,0.142245 -0.485147,0.212451 -0.171434,0.07106 -0.286969,0.161198 -0.456278,0.231543 -0.132417,0.09192 -0.424387,0.09467 -0.60808,0.167066 -0.2192,0.008 -0.226071,0.146766 -0.387181,0.207404 -0.102526,0.09601 -0.394665,0.146919 -0.593438,0.217425 -0.172722,0.06179 -0.296681,0.137797 -0.471156,0.196464 -0.137163,0.07937 -0.369397,0.12611 -0.558493,0.185971 -0.17036,0.05757 -0.346268,0.111358 -0.524607,0.164594 -0.170035,0.05396 -0.425971,-0.0038 -0.60586,0.04669 -0.232839,-0.0628 -0.386724,0.0266 -0.552566,0.0707 -0.221039,-0.02113 -0.244143,0.08919 -0.40966,0.130891 -0.118177,0.05401 -0.40365,0.104158 -0.608881,0.152338 -0.174557,0.04511 -0.352597,0.0862 -0.533168,0.125901 -0.173747,0.04286 -0.346845,0.08447 -0.528736,0.12176 -0.168458,0.04387 -0.09503,0.08275 -0.280076,0.117915 0.0069,0.05924 -0.568861,-0.02731 -0.838647,0.01796 -0.209965,-0.09643 -0.331981,0.06466 -0.509634,0.09225 -0.165891,0.03556 -0.366888,0.06227 -0.555718,0.08909 -0.175041,0.03128 -0.206367,0.08976 -0.391558,0.113677 -0.0704,0.06863 -0.470913,0.04488 -0.706057,0.07117 -0.185362,0.0069 -0.36439,0.03184 -0.547136,0.04991 -0.183316,0.01041 -0.386261,0.0087 -0.570036,0.02456 -0.197293,-0.01107 -0.388375,0.0024 -0.566249,0.01576 -0.206559,-0.01421 -0.359984,-0.04029 -0.533326,-0.02914 -0.194206,-0.05368 -0.379098,0.01011 -0.559687,0.02003 -0.196207,-0.0025 -0.361523,0.01494 -0.539495,0.02307 -0.187743,0.0045 -0.39698,-0.07593 -0.578993,-0.06936 -0.207235,-0.08543 -0.172234,0.04411 -0.346274,0.04924 -0.06499,0.03919 -0.442199,0.03298 -0.6849,0.03721 -0.155775,0.02356 -0.317605,0.03824 -0.515552,0.03943 -0.131691,0.03372 -0.249809,0.01145 -0.459994,0.0097 -0.0694,0.0085 -0.539183,-0.06512 -0.781103,-0.07119 -0.224286,-0.06322 -0.26669,0.0083 -0.43025,0.0029 -0.143577,0.01038 -0.459575,-0.146462 -0.664155,-0.155591 -0.217875,-0.139305 -0.31199,-0.0047 -0.47694,-0.01187 -0.172049,0.0016 -0.257348,-0.01455 -0.447361,-0.02347 -0.09943,-0.0082 -0.49187,-0.05257 -0.71779,-0.06486 -0.212871,-0.04015 -0.253016,0.01526 -0.420829,0.0055 -0.125842,0.02153 -0.452386,-0.0469 -0.664395,-0.06301 -0.204056,-0.03381 -0.356417,-0.03405 -0.527136,-0.04892 -0.192156,-0.02284 -0.429775,-0.145029 -0.605808,-0.162953 -0.236031,-0.129612 -0.368281,-0.07361 -0.520574,-0.08005 -0.224907,-0.05571 -0.398155,-0.09414 -0.557866,-0.09378 -0.175425,4.01e-4 -0.313111,0.01637 -0.503654,-0.0244 -0.172338,-0.04098 -0.35758,-0.219062 -0.530563,-0.262293 -0.170632,-0.175511 -0.320715,-0.142842 -0.47917,-0.184084 -0.170833,-0.106321 -0.326812,-0.0843 -0.493552,-0.129538 -0.169092,-0.04431 -0.09733,-0.06635 -0.272863,-0.11619 9.26e-4,-0.04183 -0.402862,-0.134877 -0.6565,-0.211768 -0.101178,-0.05086 -0.43741,-0.289465 -0.642432,-0.355063 -0.175647,-0.210953 -0.302324,-0.101197 -0.450009,-0.150053 -0.175642,-0.06173 -0.280335,-0.08676 -0.44882,-0.144788 -0.133028,-0.03952 -0.388994,-0.138161 -0.578687,-0.206756 -0.175492,-0.06594 -0.202065,-0.09919 -0.368066,-0.161973 -0.07766,-0.05635 -0.41483,-0.159269 -0.622766,-0.242521 C 9.9695707,25.05135 9.9391108,25.000522 9.7720275,24.930324 9.704956,24.862102 9.3538076,24.750418 9.1481493,24.658794 8.980813,24.582667 8.7785059,24.468925 8.6176921,24.393748 8.4269987,24.28214 8.406401,24.278548 8.2635122,24.208794 8.1565847,24.140018 7.9204729,24.039424 7.738969,23.945656 7.5960868,23.871751 7.4564936,23.794946 7.2926337,23.705573 7.1696031,23.634579 7.0299815,23.550276 6.8609402,23.452505 6.7624193,23.383574 6.6739804,23.277476 6.4988322,23.169636 6.4717135,23.082973 6.0570074,22.838866 5.8640811,22.712488 5.687558,22.543822 5.6394374,22.561091 5.5190779,22.479328 5.3861227,22.385707 5.1748092,22.226402 5.0261428,22.120204 4.8559283,21.983506 4.9505337,21.953411 4.8264496,21.860643 4.8236458,21.741825 4.6392159,21.629434 4.4607175,21.489561 4.4556176,21.39069 4.1035633,21.150894 3.9232653,21.004391 3.7962242,20.843942 3.6508226,20.783702 3.5244697,20.678343 3.3769791,20.55728 3.3686386,20.467297 3.2428069,20.357313 3.1929823,20.230571 2.9270113,20.078056 2.7761188,19.941193 2.637823,19.813597 2.5178341,19.583545 2.397061,19.465863 2.2786452,19.230529 2.1888754,19.261835 2.0862599,19.163986 1.9632484,19.041217 1.8823283,18.930306 1.765129,18.796998 1.6463558,18.661899 1.4606968,18.45883 1.3692413,18.293473 1.2790038,18.132898 1.163708,17.937701 1.0865484,17.77342 0.98369091,17.589217 1.126283,17.509771 1.0661024,17.355598 1.1662495,17.200764 0.89951856,16.937749 0.83928114,16.738289 0.76949942,16.555606 0.71813953,16.398359 0.68040078,16.23824 c -0.068528,-0.183221 -0.072554,-0.323904 -0.10033927,-0.48614 -0.0311628,-0.17265 -0.0448664,-0.343209 -0.0631174,-0.515571 -0.0101348,-0.173261 0.0234729,-0.342376 0.0160439,-0.516333 0.0471891,-0.170475 -0.0734503,-0.435845 -0.0705189,-0.611297 -0.0612647,-0.232112 0.004993,-0.343562 0.0151044,-0.489944 0.007208,-0.208703 0.20926638,-0.281 0.22915613,-0.438522 0.2050723,-0.139935 0.0400416,-0.471053 0.070904,-0.645686 0.0150332,-0.253609 0.047389,-0.286388 0.0765002,-0.41885 0.0336868,-0.184331 0.0766838,-0.331622 0.12175287,-0.493959 0.0464919,-0.170711 0.27790922,-0.295991 0.33455882,-0.461496 0.2338093,-0.11886 0.086122,-0.339259 0.1455923,-0.496867 0.035185,-0.180884 0.2571818,-0.281051 0.3252321,-0.438523 C 1.981259,10.107858 1.8999692,9.8989597 1.9703386,9.743853 2.0242575,9.5739398 2.0907231,9.2853363 2.1697025,9.1314365 2.2084147,8.8612805 2.2422383,8.8325973 2.3155691,8.7194213 2.3528716,8.5134619 2.7293451,8.444839 2.8546579,8.3149385 3.1625471,8.2174531 3.1583887,8.1233784 3.2326494,8.0117364 3.3197857,7.8807374 3.3150187,7.7315724 3.467078,7.5871509 3.5998897,7.4577643 3.7924947,7.3437714 3.9281833,7.2186102 4.1135872,7.1146647 4.2163279,7.0024493 4.3457824,6.888879 4.5128437,6.7875171 4.6223437,6.6589753 4.7590587,6.5450284 4.905378,6.4324769 5.2012511,6.3372874 5.3432487,6.2249371 5.6179668,6.158518 5.7243299,6.0724458 5.8385366,5.985601 6.1082575,5.9229902 6.2433474,5.813484 6.3595621,5.7284448 6.6413835,5.6512605 6.8188292,5.5913112 6.9273333,5.5145931 7.2663025,5.4664958 7.1824125,5.4085421 7.2783251,5.3426238 7.4791461,5.2766907 7.5910484,5.1731488 7.7287654,5.0821968 7.9096028,5.005325 8.0007799,4.8879525 8.1438897,4.7972469 8.283188,4.6927895 8.4304199,4.5772735 8.5836392,4.4844334 8.7179389,4.3630576 8.9643458,4.3331797 9.1180949,4.244277 9.3332773,4.195067 9.4206141,4.0929199 9.5617647,4.0146449 9.7350173,3.9399542 9.8181048,3.7674919 9.9708561,3.6865522 10.08246,3.5217073 10.284381,3.5107575 10.444976,3.4300099 c 0.154594,-0.089417 0.319666,-0.1620574 0.481453,-0.2391013 0.160259,-0.07975 0.288624,-0.2006732 0.452303,-0.2743528 0.131672,-0.123681 0.338323,-0.1499306 0.508417,-0.2218178 0.166542,-0.070385 0.354383,-0.1299216 0.522109,-0.1964454 0.18414,-0.055926 0.298928,-0.1463926 0.463391,-0.2076665 0.147966,-0.084271 0.408332,-0.1056252 0.586084,-0.167267 0.212772,-0.031012 0.373707,-0.081318 0.532446,-0.1330542 0.215822,-0.024932 0.418661,-0.064005 0.577577,-0.1128045 0.248477,-0.00728 0.292276,-0.089956 0.439135,-0.1328633 0.174005,-0.052114 0.581795,-0.084254 0.757369,-0.1324042 0.337168,-0.012448 0.247468,-0.042393 0.35312,-0.070469 0.20272,-0.02914 0.311046,-0.1040021 0.476925,-0.145947 0.160498,-0.062669 0.36019,-0.095081 0.542568,-0.1381449 0.17358,-0.046383 0.357576,-0.084577 0.536807,-0.1237385 0.177465,-0.040451 0.380307,-0.06492 0.559326,-0.1007702 0.195212,-0.022939 0.337239,-0.0752449 0.510121,-0.10705574 0.173343,-0.0408444 0.355303,-0.0873527 0.537838,-0.11749062 0.172887,-0.0520684 0.325045,-0.12086125 0.507944,-0.1469016 0.151321,-0.0899863 0.389358,-0.0484821 0.582741,-0.0689147 0.186408,-0.0169104 0.348453,-0.0406221 0.529328,-0.0549815 0.174106,-0.0199929 0.342088,-0.0644308 0.528894,-0.0749801 0.161074,-0.0482058 0.361177,-0.0272892 0.554556,-0.0310949 0.166776,-0.0141493 0.549451,0.0111555 0.739404,0.0117455 0.318642,0.015421 0.246641,-0.0225536 0.355519,-0.0250956 0.168814,-0.003941 0.42702,0.0487991 0.644292,0.042258 0.183085,-0.002067 0.306767,-0.0765452 0.490303,-0.0766547 0.143976,-0.0734973 0.608897,0.0422027 0.813069,0.0446725 0.318212,0.0425809 0.241346,0.004918 0.358253,0.007177 0.189503,0.005186 0.363813,0.007855 0.545772,0.0134563 0.184662,0.005481 0.382269,0.0138953 0.566965,0.0217847 0.193411,0.009149 0.359912,0.0150827 0.540386,0.0249506 0.184196,0.008728 0.400996,0.0369001 0.586219,0.0493662 0.204837,0.0272233 0.353938,0.0271833 0.528233,0.0410227 0.188153,0.0171999 0.360232,-0.1407605 0.543077,-0.12385641 0.186896,-0.15318514 0.387633,0.0382119 0.580074,0.0590801 0.186746,0.0210653 0.318383,-0.001004 0.502567,0.0218491 0.153021,-0.0171799 0.435868,0.0665834 0.639066,0.0954778 0.203311,0.0390641 0.441118,0.0792585 0.61523,0.10675731 0.244752,0.0523762 0.285591,0.0371022 0.437618,0.0632266 0.171447,0.0206762 0.364606,0.0341298 0.554488,0.0701713 0.174145,0.003133 0.36455,0.0181436 0.554298,0.0577602 0.175496,-0.0158907 0.344691,0.0525843 0.535571,0.096361 0.157866,0.01566 0.496419,0.105902 0.691861,0.1550122 0.251089,0.050724 0.307257,0.077958 0.453376,0.1171539 0.18935,0.050072 0.400323,0.1186665 0.574621,0.1690395 0.211263,0.069498 0.520101,0.1233129 0.68025,0.1727072 0.31246,0.063978 0.188327,0.03781 0.301844,0.0745 0.153064,0.028954 0.380918,0.1221302 0.571542,0.1887899 0.173406,0.057242 0.399352,0.1321502 0.57489,0.1980012 0.205376,0.066166 0.397647,0.1379838 0.556044,0.2012377 0.226308,0.075383 0.520198,0.1293158 0.66657,0.1912532 0.331067,0.054584 0.363895,0.1276484 0.46891,0.1742475 0.275598,0.091759 0.316178,0.1365065 0.437462,0.1935153 0.217258,0.094902 0.428436,0.1789313 0.571901,0.2511861 0.26142,0.1022487 0.20714,0.096716 0.32987,0.1625318 0.138781,0.066239 0.500908,0.2091788 0.676901,0.312505 0.265177,0.084609 0.192809,0.071463 0.315222,0.1487784 0.127717,0.038737 0.327579,0.2053356 0.507541,0.3321854 0.124721,0.082326 0.370342,0.2403051 0.535026,0.3664719 0.177008,0.1070245 0.43004,0.2236085 0.567162,0.335657 0.26771,0.1011958 0.21364,0.1753844 0.322386,0.2721931 0.131472,0.1141648 0.303296,0.2689303 0.442688,0.402771 0.14757,0.132896 0.19518,0.1189919 0.321832,0.2449008 0.09107,0.020621 0.307068,0.3182764 0.474379,0.4958152 0.122785,0.1310811 0.294419,0.2883467 0.426503,0.4210441 0.133426,0.1340453 0.267702,0.2631566 0.405489,0.3834202 0.140512,0.1189441 0.238033,0.2117903 0.372268,0.3387173 0.106116,0.1078932 0.310782,0.2916074 0.449137,0.4386724 0.144037,0.1400515 0.236635,0.2597873 0.351854,0.3954763 0.117439,0.1403319 0.302727,0.3129006 0.416242,0.4618915 0.165673,0.1574876 0.31337,0.2696238 0.408101,0.4072294 0.208515,0.1385915 0.135637,0.2149185 0.22277,0.3564673 0.06292,0.1211448 0.239125,0.3775796 0.339558,0.567601 0.105287,0.1695742 0.233814,0.3554112 0.309972,0.5216072 0.138521,0.184703 0.191572,0.316555 0.253766,0.474925 0.120297,0.173912 0.257164,0.380668 0.312747,0.553224 0.180451,0.198181 0.08478,0.294535 0.1251,0.45446 0.03722,0.171533 0.08299,0.342147 0.116717,0.53891 0.02753,0.155323 0.05763,0.328497 0.07658,0.534655 0.01552,0.133154 0.02043,0.421947 0.02343,0.63915 -0.0078,0.180891 0.06393,0.39115 0.05465,0.580518 0.05577,0.197643 0.0076,0.375445 -0.01459,0.558055 0.01001,0.193802 -0.05951,0.250207 -0.09571,0.432395 -0.05002,0.09693 -0.04961,0.444723 -0.108263,0.66476 -0.0039,0.19176 -0.103632,0.353466 -0.164647,0.530686 -0.06205,0.174301 -0.192078,0.268469 -0.262857,0.44228 -0.139718,0.10015 -0.151942,0.338105 -0.217862,0.537306 -0.06251,0.18889 -0.109786,0.42642 -0.190957,0.584907 -0.07531,0.159912 -0.162341,0.312609 -0.245195,0.467679 -0.09072,0.150313 -0.202536,0.285504 -0.292497,0.435855 -0.123097,0.128019 -0.177535,0.300123 -0.2739,0.445945 -0.09072,0.147566 -0.183405,0.291811 -0.285894,0.433154 -0.09087,0.144944 -0.197684,0.28423 -0.307026,0.422212 -0.09754,0.139834 -0.200018,0.278999 -0.31545,0.41282 -0.09429,0.139692 -0.126693,0.306657 -0.249063,0.437132 -0.02176,0.178653 -0.271889,0.227215 -0.411518,0.361014 -0.138778,0.07877 -0.27767,0.25026 -0.417991,0.374347 -0.137383,0.111576 -0.247567,0.236707 -0.382996,0.348846 -0.120852,0.120882 -0.320121,0.193549 -0.462048,0.303325 -0.178114,0.07267 -0.273139,0.207057 -0.409763,0.309448 -0.142504,0.104174 -0.266427,0.216622 -0.408172,0.319119 -0.129209,0.111711 -0.319876,0.165906 -0.466953,0.266117 -0.174444,0.0579 -0.271225,0.205538 -0.413528,0.306054 -0.127858,0.107619 -0.292283,0.202613 -0.441601,0.298754 -0.148038,0.09532 -0.32948,0.16126 -0.477027,0.247019 z"
     transform="translate(0.00456873,0.03787287)" />
  <path
     d="m 0.40144373,14.400821 c 0.018129,6.798296 -0.0364261,13.598465 0.0275752,20.395579 0.51567415,5.109577 5.12679767,8.52437 9.49874247,10.442337 5.6280056,2.438162 11.9098476,3.170121 17.9825986,2.696988 0.02659,-6.57201 0.02447,-13.177184 0.03256,-19.728478 C 20.036117,28.781583 11.54216,27.502943 5.0615164,22.648088 2.5142254,20.671328 0.38446506,17.74789 0.40144373,14.400821 Z M 27.91346,47.935725 l 0.40876,-0.03824 z"
     style="fill:#f3bd5b;stroke:#000000;stroke-width:0.79375;stroke-linecap:square;stroke-linejoin:round"
     id="path2" />
  <path
     d="m 48.602636,14.400821 c -0.0534,5.002852 -4.370014,8.649037 -8.539819,10.652285 -3.784526,1.843426 -7.952987,2.80155 -12.133338,3.155141 0.02532,6.574805 -0.0057,13.157858 -0.01602,19.727478 6.672471,-0.620644 13.823374,-2.61433 18.375482,-7.840057 1.504518,-1.758355 2.401618,-4.032749 2.174136,-6.355891 0.04652,-6.446319 0.09304,-12.892637 0.139559,-19.338956 z"
     style="stroke:#000000;stroke-width:0.79375;stroke-linecap:square;stroke-linejoin:round"
     id="path1" />
  <circle
     style="fill:#ff0000;stroke-width:0.529167;stroke-linecap:round;stroke-miterlimit:4.1;stroke-dasharray:none"
     id="attach-back-left"
     cx="5.7369323"
     cy="13.097197"
     r="0.83869553" />
  <circle
     style="fill:#ff0000;stroke-width:0.529168;stroke-linecap:round;stroke-miterlimit:4.1;stroke-dasharray:none"
     id="attach-back-right"
     cx="44.926971"
     cy="13.104459"
     r="0.83869553" />
  <circle
     style="fill:#ff0000;stroke-width:0.529167;stroke-linecap:round;stroke-miterlimit:4.1;stroke-dasharray:none"
     id="attach-front-right"
     cx="42.456474"
     cy="33.958294"
     r="0.83869553" />
  <circle
     style="fill:#ff0000;stroke-width:0.529168;stroke-linecap:round;stroke-miterlimit:4.1;stroke-dasharray:none"
     id="attach-front-left"
     cx="7.1661391"
     cy="34.63287"
     r="0.83869553" />
  <circle
     style="fill:#ff0000;stroke-width:0.529168;stroke-linecap:round;stroke-miterlimit:4.1;stroke-dasharray:none"
     id="attach-bottom"
     cx="24.500101"
     cy="38.529736"
     r="0.83869553" />
  <circle
     style="fill:#ff0000;stroke-width:0.529168;stroke-linecap:round;stroke-miterlimit:4.1;stroke-dasharray:none"
     id="attach-top"
     cx="24.502054"
     cy="15.149412"
     r="0.83869553" />
  <path
     d="m 0.39453141,14.266872 c 0.009287,0.17934 -0.0147319,0.393656 -0.006502,0.572978 -0.0259233,0.138975 0.12563579,0.425348 0.1336489,0.625527 0.11466631,0.194805 -0.0127546,0.291336 -0.006905,0.461031 -0.0191062,0.147684 -0.010407,0.358311 -0.004778,0.554153 -0.0178391,0.15752 0.008568,0.378658 0.0131153,0.569515 0.002393,0.177677 0.0371258,0.380265 0.0406606,0.560844 0.0323142,0.192399 -0.0277961,0.279319 -0.0251075,0.452426 -0.0310667,0.13531 0.0607826,0.43027 0.063151,0.632639 0.0569163,0.197117 0.004074,0.342201 0.005468,0.513348 0.001857,0.180194 0.0319742,0.379417 0.0328379,0.559592 0.030194,0.193205 0.005369,0.349158 0.005634,0.523064 0.004279,0.181561 0.005369,0.360455 0.005097,0.540558 0.004841,0.181072 -0.0400541,0.229172 -0.0408131,0.409857 -0.0401892,0.09249 -0.0346479,0.370635 -0.0360085,0.59602 -0.0337707,0.128191 0.047274,0.417 0.0459295,0.624913 0.0486726,0.183228 5.8841e-4,0.364235 -7.8943e-4,0.545273 0.001671,0.183745 0.001457,0.364585 -6.872e-5,0.54566 0.002774,0.184227 0.006075,0.368856 0.004452,0.550177 0.007578,0.187099 0.15549276,0.370089 0.15380846,0.550508 0.15708672,0.190281 -0.02314,0.208204 -0.0257114,0.388811 -0.0226042,0.08072 0.005493,0.474791 0.001233,0.71011 0.009413,0.188428 -0.001473,0.368209 -0.005208,0.550125 0.001614,0.187817 0.0865844,0.410362 0.0825198,0.593037 0.0904726,0.216499 -0.0102214,0.324002 -0.0148987,0.494393 -0.007372,0.174144 -0.0112073,0.371733 -0.0171982,0.562679 -0.006198,0.179065 -0.0237634,0.345173 -0.0300848,0.534114 -0.0182085,0.163968 -0.0326293,0.359372 -0.0390783,0.556197 -0.0259275,0.163438 -0.0205838,0.31444 -0.0262135,0.512081 -0.0140852,0.132468 -0.0220237,0.409643 -0.0266358,0.624202 -0.0147458,0.17641 -0.0107723,0.379158 -0.0133033,0.572589 -0.005797,0.184409 -0.0231984,0.268232 -0.0239821,0.458677 -0.0200029,0.111209 0.10216191,0.487282 0.104717,0.716436 0.10410967,0.216071 0.0253202,0.379195 0.0235154,0.556381 0.021946,0.209042 0.0379979,0.40696 0.032545,0.588242 0.0389694,0.223044 0.0812529,0.374758 0.0701067,0.549827 0.0850034,0.207869 -0.08554,0.312001 -0.11714699,0.499271 -0.0315709,0.187056 0.0126892,0.465234 0.0234657,0.656971 0.019099,0.189244 0.0127307,0.216885 0.0419166,0.401435 0.007104,0.07918 0.0942794,0.485271 0.14826122,0.716663 0.0511348,0.185993 0.15704165,0.348804 0.20642875,0.518845 0.1194543,0.168304 0.074409,0.291936 0.1303053,0.453726 0.037188,0.144833 0.1793006,0.402817 0.2518501,0.580331 0.1082541,0.186961 0.1045096,0.265895 0.1703766,0.408811 0.05958,0.143693 0.1528865,0.326459 0.2388294,0.490562 0.076133,0.149729 0.1284727,0.178386 0.2187047,0.332488 0.069774,0.05321 0.2006288,0.318003 0.3222888,0.502049 0.080596,0.104197 0.1853696,0.210484 0.3007205,0.368932 0.089855,0.05701 0.2381499,0.252183 0.3702776,0.417849 0.110269,0.06982 0.2428846,0.143515 0.3733662,0.2953 0.1328427,-0.0012 0.2818172,0.249374 0.429766,0.410772 0.1276387,0.06594 0.2668835,0.287576 0.4025961,0.428518 0.1237919,0.12869 0.389273,0.284997 0.5133268,0.408318 0.2420855,0.13063 0.2505418,0.20179 0.3466865,0.29493 0.1750186,0.124969 0.2144365,0.02433 0.3304297,0.133464 0.1485189,-0.0426 0.3266206,0.3032 0.4937949,0.457779 0.1280938,0.115007 0.2981032,0.275206 0.4319079,0.395957 0.1538225,0.140291 0.2366338,0.209858 0.3580924,0.316092 0.1305,0.111772 0.3477769,0.262698 0.4847926,0.377258 0.1940054,0.125973 0.236597,0.196051 0.3533838,0.290156 0.1401722,0.112689 0.3578734,0.242692 0.4963491,0.347415 0.2048338,0.116165 0.2414163,0.178739 0.3606788,0.264757 0.1438061,0.10114 0.265502,0.15351 0.4131762,0.249171 0.1277009,0.0468 0.3637135,0.234711 0.5349395,0.3377 0.151813,0.09131 0.2776246,0.16656 0.4370742,0.236511 0.1655297,0.07171 0.3597047,0.168759 0.5269867,0.237507 0.184105,0.09108 0.358863,0.167502 0.516638,0.229153 0.196909,0.09949 0.399876,0.156205 0.552542,0.212955 0.234602,0.09046 0.245144,-0.0057 0.384244,0.04368 0.160366,-0.03925 0.395645,0.145393 0.589412,0.210069 0.17936,0.06711 0.313333,0.05577 0.483382,0.109463 0.161942,0.0034 0.477288,0.135197 0.66569,0.191192 0.245015,0.06097 0.385163,0.132046 0.528291,0.17264 0.241549,0.08841 0.283892,0.01049 0.426064,0.04889 0.18325,-0.01957 0.356178,0.08155 0.539904,0.12825 0.172411,0.03047 0.424971,0.09823 0.608429,0.142027 0.219178,0.04487 0.314118,0.06011 0.474704,0.09633 0.176582,0.02592 0.362742,-0.07178 0.54636,-0.03305 0.187907,-0.112675 0.390366,0.08554 0.582677,0.123897 0.184878,0.04125 0.390956,0.09235 0.569878,0.126074 0.203014,0.05397 0.32749,0.01388 0.49712,0.04396 0.176844,-0.01567 0.358904,0.02649 0.547595,0.05787 0.171989,-0.0077 0.483105,0.111727 0.673661,0.141468 0.24952,0.07232 0.281496,0.01586 0.428326,0.03739 0.175938,-0.0017 0.359365,0.0274 0.547594,0.05287 0.172433,-0.0011 0.379168,0.04898 0.569144,0.07263 0.18262,0.02139 0.372036,0.04502 0.555589,0.06582 0.186536,0.02088 0.395137,0.04614 0.576772,0.06458 0.204621,0.02354 0.308653,-0.06835 0.481083,-0.05296 0.16162,-0.08469 0.39505,-0.02444 0.593899,-0.0076 0.183448,-0.04388 0.477367,0.07615 0.66333,0.09199 0.252964,0.05687 0.28798,-0.118705 0.433237,-0.10748 0.184972,-0.128483 0.377234,0.01001 0.565323,0.02735 0.181765,-0.0044 0.365813,0.03458 0.548345,0.05271 0.179602,0.01734 0.463428,0.08659 0.643402,0.103069 0.250457,0.0643 0.274387,9.77e-4 0.41461,0.0084 0.171028,-0.01296 0.446254,0.06645 0.631451,0.07011 0.241133,0.05236 0.302944,-0.02154 0.45427,-0.03703 0.166734,-0.01707 0.33209,-0.199462 0.530899,-0.214952 0.01836,-0.171541 -8e-6,-0.408784 0.01582,-0.581313 -0.02149,-0.217204 0.143607,-0.288645 0.155715,-0.441307 0.130612,-0.160292 0.09905,-0.318606 0.110481,-0.495466 0.08438,-0.150957 0.03994,-0.353919 0.04911,-0.539672 0.02643,-0.164961 0.0504,-0.346656 0.05683,-0.528669 0.04023,-0.165873 0.0306,-0.344403 0.03459,-0.52719 0.02303,-0.164374 0.01076,-0.36436 0.01242,-0.549479 0.0055,-0.175376 0.09596,-0.332619 0.09549,-0.51334 0.09331,-0.161129 0.08743,-0.347936 0.08457,-0.537586 0.08677,-0.160867 0.09387,-0.380306 0.08851,-0.572131 0.09582,-0.181061 0.12966,-0.342991 0.122179,-0.526789 0.133294,-0.169014 0.0199,-0.351345 0.0092,-0.544664 0.02629,-0.160979 -6.48e-4,-0.369751 -0.01417,-0.565657 0.0092,-0.169713 -0.03505,-0.390766 -0.0506,-0.582019 -0.02208,-0.189017 -0.04082,-0.393963 -0.05724,-0.574055 -0.02626,-0.205689 0.0114,-0.303377 -0.0056,-0.474691 0.02377,-0.158487 -0.02774,-0.383029 -0.0491,-0.580848 -0.0079,-0.175465 -0.06897,-0.471295 -0.09057,-0.658942 -0.04505,-0.246662 -0.0384,-0.309877 -0.05626,-0.459598 -0.02496,-0.1896 -0.04452,-0.361185 -0.06655,-0.540276 -0.02374,-0.184523 -0.06653,-0.420949 -0.08932,-0.602512 -0.042,-0.220528 -0.04095,-0.325694 -0.06142,-0.488148 -0.02304,-0.182806 -0.03403,-0.354552 -0.05689,-0.536743 -0.01143,-0.176059 -0.06327,-0.39573 -0.0864,-0.582064 -0.03819,-0.197175 -0.01134,-0.320574 -0.03237,-0.494742 0.0084,-0.164739 -0.01326,-0.354518 -0.03607,-0.547743 0.01032,-0.162142 0.01298,-0.34334 -0.0097,-0.538167 0.03564,-0.153724 -0.04791,-0.400667 -0.07185,-0.601563 -0.02248,-0.182584 0.09043,-0.343453 0.069,-0.525845 0.11088,-0.174786 -0.0282,-0.372191 -0.05529,-0.568483 -0.0056,-0.169481 -0.06716,-0.396701 -0.09547,-0.586248 -0.03925,-0.192978 -0.05527,-0.351174 -0.08005,-0.523838 -0.02925,-0.183534 -0.05094,-0.358463 -0.0731,-0.535833 -0.02349,-0.182266 -0.02982,-0.346326 -0.04673,-0.525314 -0.0045,-0.170512 -0.03956,-0.380921 -0.05232,-0.567577 -0.01255,-0.183549 -0.02077,-0.384183 -0.02055,-0.563047 -0.183879,0.02627 -0.390145,-0.02501 -0.574453,-0.0018 -0.201951,-0.05335 -0.354948,0.04628 -0.535073,0.06617 -0.180956,0.02282 -0.376985,0.03296 -0.563062,0.05049 -0.188294,0.01066 -0.381342,-0.01239 -0.564595,0.0019 -0.195921,-0.03128 -0.371411,0.01419 -0.552317,0.02555 -0.19156,-0.0013 -0.260551,0.03952 -0.442385,0.04813 -0.115766,0.02844 -0.442851,-0.0074 -0.661862,-0.0011 -0.188617,-0.02081 -0.312253,0.05463 -0.495791,0.05698 -0.148421,0.04822 -0.440874,-0.08518 -0.644133,-0.08622 -0.207678,-0.08945 -0.229552,0.04667 -0.402666,0.04327 -0.107094,0.0453 -0.443292,-0.0089 -0.667278,-0.01772 -0.181727,-0.0053 -0.372336,-0.01634 -0.558532,-0.02667 -0.184479,-0.01048 -0.361478,-0.02023 -0.545923,-0.03347 -0.179291,-0.01167 -0.374143,-0.03006 -0.56081,-0.04657 -0.184359,-0.01794 -0.349736,-0.01531 -0.533266,-0.03458 -0.172528,-0.0013 -0.37722,-0.03835 -0.567119,-0.06162 -0.181479,-0.01938 -0.372081,-0.253154 -0.556194,-0.278883 -0.175056,-0.230395 -0.341849,-0.0478 -0.513156,-0.07401 -0.180912,-0.0266 -0.393456,-0.108244 -0.575187,-0.138687 -0.198305,-0.07954 -0.321009,-0.04047 -0.489451,-0.0709 -0.170379,-0.01661 -0.320342,-0.03482 -0.506735,-0.07138 -0.145831,-0.005 -0.409421,-0.09447 -0.608094,-0.136971 -0.186142,-0.05204 -0.359186,-0.116057 -0.533556,-0.156129 -0.182497,-0.07964 -0.354995,-0.148226 -0.527242,-0.190455 -0.179481,-0.109201 -0.361978,-0.119882 -0.531219,-0.163745 -0.190103,-0.07894 -0.274784,-0.07132 -0.441634,-0.116873 -0.13633,-0.03704 -0.384955,-0.105347 -0.580706,-0.162225 -0.170679,-0.04832 -0.328076,-0.07764 -0.505904,-0.132372 -0.157425,-0.02977 -0.257578,-0.08184 -0.44308,-0.142684 -0.09629,-0.03463 -0.445543,-0.181426 -0.656761,-0.255769 -0.185145,-0.09743 -0.326015,-0.121167 -0.487444,-0.180789 -0.173255,-0.06901 -0.31511,-0.120383 -0.485122,-0.18646 -0.153259,-0.06248 -0.31327,-0.12176 -0.491904,-0.195065 C 9.991316,25.41571 9.8915512,25.329697 9.7071616,25.249551 9.6328315,25.172066 9.3842167,25.113142 9.1770029,25.018549 9.0701777,24.973879 8.8254674,24.867952 8.6271519,24.772572 8.4881958,24.716891 8.3452829,24.643331 8.1638328,24.551161 8.0534559,24.501666 7.7581178,24.316388 7.5656438,24.21253 7.3881169,24.091828 7.3427529,24.059893 7.1926747,23.976256 7.0904617,23.886634 6.7902767,23.675363 6.6049352,23.570111 6.4248237,23.391535 6.2921421,23.36866 6.1534164,23.295278 5.9660161,23.166413 5.860218,23.136457 5.7146285,23.060706 5.5488841,22.974469 5.4586236,22.893639 5.3043679,22.778082 5.1703,22.674042 5.0281281,22.55212 4.8920896,22.444459 4.7531726,22.323803 4.6389125,22.246344 4.506111,22.13832 4.3765706,22.036148 4.1900012,21.752596 4.0492196,21.63354 3.9109676,21.391069 3.83932,21.4545 3.7356853,21.364264 3.599568,21.245385 3.490164,21.151969 3.3577952,21.031074 3.2400723,20.926515 3.0992006,20.793305 2.962114,20.659857 2.8478806,20.549419 2.6680577,20.354995 2.5368908,20.217088 2.3994495,20.060448 2.3237728,19.988008 2.2149528,19.864309 2.1056041,19.738218 1.9719064,19.581193 1.8575786,19.437131 1.7454193,19.29579 1.6787363,19.186892 1.5773544,19.043249 1.504154,18.916283 1.4274106,18.728227 1.3278535,18.564692 1.2971885,18.407364 1.1100139,18.168851 1.0233444,18.003174 0.92549253,17.796526 0.90075557,17.747622 0.84019246,17.613241 0.77796355,17.459122 0.73816115,17.319506 0.67802966,17.150922 0.65357229,17.008436 0.58846729,16.795414 0.53950791,16.60805 c -0.0144239,-0.169043 -0.010949,-0.304745 -0.0436903,-0.487437 0.0407149,-0.143277 -0.0765548,-0.421164 -0.10328312,-0.629123 -0.0298685,-0.206833 -0.0423195,-0.414532 -0.0445817,-0.593 -0.002475,-0.195224 0.0122259,-0.430011 0.0465787,-0.631618 z M 28.739415,47.757935 28.62885,47.85209 Z"
     style="fill:#ffffff;stroke:none;stroke-width:0.79375;stroke-linecap:square;stroke-linejoin:round"
     id="path5"
     transform="translate(0.00456873,0.03787287)" />
  <path
     d="m 48.438305,15.009439 c 0.0234,0.14747 -0.06251,0.221812 -0.04825,0.366174 -0.0097,0.104452 0.106706,0.353695 0.111522,0.515087 0.08389,0.158074 -0.01511,0.216905 -0.01881,0.347243 -0.02355,0.107072 -0.03136,0.274923 -0.04613,0.426145 -0.03148,0.112482 -0.0345,0.28657 -0.05788,0.428748 -0.02317,0.12973 -0.02598,0.282749 -0.05537,0.412329 -0.0067,0.143669 -0.08516,0.180885 -0.120134,0.302547 -0.06647,0.07681 -0.04615,0.310711 -0.09618,0.450492 -0.0019,0.145193 -0.08814,0.237178 -0.137026,0.35374 -0.04982,0.119831 -0.08169,0.257156 -0.138097,0.374053 -0.03358,0.134147 -0.110683,0.229793 -0.171854,0.341921 -0.05938,0.116022 -0.123869,0.227932 -0.191994,0.339594 -0.0645,0.112612 -0.16849,0.09133 -0.242296,0.200643 -0.118598,0.0014 -0.206994,0.185546 -0.303965,0.315073 -0.111251,0.0383 -0.140223,0.234879 -0.232867,0.349188 -0.04986,0.11016 -0.173743,0.216696 -0.265222,0.32184 -0.08423,0.102891 -0.17182,0.201573 -0.262232,0.299171 -0.08727,0.101295 -0.176004,0.201671 -0.27013,0.297427 -0.08733,0.103084 -0.07244,0.200752 -0.170011,0.294532 0.0012,0.122102 -0.250134,0.07077 -0.372195,0.179663 -0.13754,-0.04159 -0.239711,0.227032 -0.367852,0.335641 -0.09555,0.09664 -0.20751,0.183483 -0.315425,0.271225 -0.10272,0.09288 -0.144909,0.219128 -0.25417,0.30443 -0.04642,0.137089 -0.235987,0.164193 -0.355702,0.252482 -0.115844,0.06814 -0.23014,0.158285 -0.346962,0.240451 -0.115801,0.07208 -0.240932,0.129945 -0.358503,0.20923 -0.127389,0.0484 -0.252721,0.126849 -0.372772,0.20541 -0.133064,0.04498 -0.243506,0.07644 -0.362528,0.153128 -0.133852,0.0039 -0.26362,0.151127 -0.391292,0.234796 -0.124799,0.06189 -0.235927,0.149229 -0.352026,0.226137 -0.118078,0.07202 -0.244838,0.04283 -0.359347,0.11835 -0.143041,-0.02524 -0.180359,0.215524 -0.306234,0.308709 -0.03986,0.124084 -0.221251,0.191739 -0.346771,0.268976 -0.09906,0.09601 -0.206468,0.172812 -0.326574,0.229445 -0.12719,0.05997 -0.212222,0.08747 -0.323278,0.140824 -0.124639,0.06458 -0.275688,0.05706 -0.40031,0.119602 -0.153243,-0.0074 -0.228154,0.146805 -0.354937,0.208493 -0.103136,0.08305 -0.279864,-0.03452 -0.408528,0.02596 -0.160777,-0.09369 -0.268436,0.140753 -0.406627,0.203734 -0.116809,0.06866 -0.196414,0.115425 -0.321164,0.170564 -0.08547,0.0638 -0.295957,0.08399 -0.434712,0.143044 -0.142206,0.01513 -0.210455,0.144539 -0.333878,0.195359 -0.09378,0.09393 -0.273092,0.08098 -0.403305,0.132451 -0.13685,0.02391 -0.25204,0.08816 -0.375886,0.135253 -0.129191,0.03866 -0.279008,-0.04202 -0.403636,0.0035 -0.160806,-0.088 -0.280671,0.03671 -0.411425,0.08303 -0.144957,-0.01354 -0.275229,-0.02359 -0.400733,0.01974 -0.154149,-0.06711 -0.268539,0.0048 -0.398237,0.04891 -0.140806,-0.03968 -0.267989,-0.07436 -0.399525,-0.03006 -0.146701,-0.115895 -0.284658,0.01993 -0.426379,0.06815 -0.135342,-0.03028 -0.264439,0.0953 -0.398377,0.141434 -0.122969,0.04727 -0.142726,0.122788 -0.268943,0.166216 -0.04283,0.08823 -0.260361,0.117517 -0.414456,0.168726 -0.09104,0.05841 -0.284032,-0.107381 -0.421709,-0.06382 -0.153883,-0.151888 -0.287764,0.08351 -0.431635,0.129488 -0.12895,0.03317 -0.228175,0.112007 -0.35552,0.152414 -0.10513,0.07235 -0.264016,0.07501 -0.395394,0.11492 -0.129707,0.03142 -0.196289,0.102974 -0.323512,0.139633 -0.0849,0.06777 -0.28306,0.08044 -0.42731,0.117493 -0.128682,0.03406 -0.200578,0.08721 -0.332175,0.117091 -0.08777,0.05573 -0.300566,0.0591 -0.453021,0.08657 -0.136785,0.01928 -0.290114,-0.007 -0.42652,0.01276 -0.155118,-0.03366 -0.236972,0.06467 -0.370982,0.08418 -0.114166,0.04622 -0.287128,0.05295 -0.437322,0.06671 -0.134652,0.02719 -0.270812,0.04622 -0.4156,0.04887 -0.148441,0.0027 -0.281475,0.01504 -0.420115,0.01372 5.27e-4,0.136976 0.07233,0.312723 0.07271,0.449469 0.07169,0.162631 -0.023,0.140323 -0.02282,0.263856 -0.02336,0.0652 0.0081,0.355069 0.008,0.527097 0.0077,0.143422 -0.01876,0.209982 -0.01894,0.342594 -0.01885,0.09911 0.07536,0.327575 0.07497,0.482029 0.07554,0.148337 0.07309,0.307596 0.07256,0.437337 0.07336,0.167917 -0.0011,0.171029 -0.0018,0.290851 -9.49e-4,0.08981 -0.0099,0.30119 -0.01125,0.459709 -0.009,0.124788 0.04105,0.288037 0.0396,0.428756 0.04217,0.139859 -0.0079,0.251233 -0.0096,0.38451 -0.0068,0.124909 -0.0067,0.12801 -0.0087,0.268281 -0.0057,0.03314 -0.0011,0.37715 -0.0042,0.563226 0.0023,0.138534 0.02013,0.287933 0.01766,0.421074 0.02237,0.149491 -0.01356,0.206292 -0.01615,0.333992 -0.01177,0.101858 -0.01985,0.262467 -0.02318,0.413517 -0.01685,0.108115 0.0692,0.344016 0.06574,0.491691 0.07302,0.16784 -0.0151,0.208199 -0.01811,0.327017 -0.01308,0.114743 -0.02058,0.261374 -0.02452,0.405609 -0.01704,0.116237 -0.0087,0.284636 -0.01284,0.427899 -0.0047,0.133146 -0.0043,0.269633 -0.0084,0.404485 -5.01e-4,0.134307 0.01532,0.274135 0.01112,0.408381 0.01934,0.138314 -0.03574,0.162806 -0.04008,0.295336 -0.03284,0.06541 -0.01267,0.275772 -0.01829,0.443872 -0.0068,0.09403 0.06815,0.351439 0.06294,0.505628 0.0744,0.164378 -0.01205,0.09797 -0.01637,0.218477 -0.01026,0.03823 -0.01446,0.34122 -0.02138,0.523546 -0.0066,0.119472 -0.01113,0.281327 -0.01668,0.422908 -0.0056,0.133366 0.06615,0.318853 0.06075,0.453461 0.07199,0.168983 -0.02081,0.214101 -0.02592,0.332716 -0.01723,0.118708 0.04418,0.332013 0.03772,0.473899 0.05115,0.167922 -0.01881,0.224213 -0.0247,0.343274 -0.01457,0.124966 -0.02521,0.104765 -0.03256,0.243687 -0.02127,0.01736 -0.04668,0.317035 -0.05724,0.509776 -0.0347,0.08933 0.06957,0.325235 0.06123,0.481411 0.07946,0.146143 0.03938,0.295215 0.03179,0.426641 0.04647,0.158321 -0.002,0.26554 -0.01007,0.390496 0.0045,0.145927 0.0077,0.275688 -0.0017,0.405544 0.01567,0.146396 -0.0052,0.280499 -0.01559,0.410601 0.0038,0.148822 -0.01814,0.26228 -0.02927,0.390607 -0.0087,0.138213 0.04591,0.294444 0.03374,0.427219 0.05764,0.156776 0.0416,0.287636 0.02793,0.41537 0.05253,0.159759 0.0451,0.260387 0.02817,0.387909 0.0561,0.142548 0.06367,0.303217 0.03965,0.441459 0.0806,0.161155 -0.02657,0.307525 -0.0593,0.442095 -0.0029,0.158762 -0.04804,0.267426 -0.08257,0.387824 -0.01896,0.144357 -0.07861,0.234337 -0.11329,0.353636 -0.0425,0.117506 -0.07716,0.220995 -0.100307,0.3522 -0.02321,0.131563 0.0028,0.338906 0.0026,0.476934 0.133449,-0.01241 0.276116,-0.01393 0.409711,-0.02761 0.140153,-0.0019 0.241485,-0.123954 0.372598,-0.138622 0.116054,-0.11179 0.270724,-0.04154 0.407466,-0.05812 0.131287,-0.02656 0.266883,-0.03588 0.400857,-0.05339 0.132696,-0.02024 0.251484,-0.0929 0.385198,-0.111655 0.119942,-0.07637 0.271802,-0.03877 0.407675,-0.05913 0.13328,-0.01997 0.275425,-0.02988 0.408634,-0.05113 0.139802,-0.01019 0.249558,-0.06468 0.380352,-0.08684 0.123555,-0.04528 0.295014,-0.0181 0.430632,-0.04248 0.150611,0.0057 0.278708,-0.0142 0.405585,-0.0383 0.151632,0.008 0.297464,-0.0034 0.424185,-0.02887 0.165497,0.021 0.242977,-0.05061 0.364534,-0.07638 0.13216,-0.02917 0.364486,-0.03699 0.496854,-0.06671 0.201598,-0.0029 0.219901,-0.02801 0.322028,-0.05199 0.144064,-0.01179 0.2477,-0.08088 0.376041,-0.112744 0.123541,-0.05267 0.263892,-0.07184 0.396663,-0.106679 0.129143,-0.03931 0.262594,-0.07161 0.393715,-0.107899 0.13024,-0.03783 0.271087,-0.05927 0.401298,-0.09722 0.138276,-0.02346 0.253407,-0.08476 0.381352,-0.123987 0.126406,-0.04876 0.256013,-0.107206 0.385233,-0.148846 0.123867,-0.06769 0.238156,-0.158733 0.364851,-0.201514 0.108854,-0.118032 0.253738,-0.08306 0.378249,-0.126884 0.130132,-0.04225 0.248814,-0.09644 0.374552,-0.142604 0.123189,-0.05321 0.242528,-0.139389 0.36876,-0.187727 0.11275,-0.09272 0.240295,-0.108373 0.363451,-0.157382 0.118344,-0.06265 0.32711,-0.08275 0.451849,-0.134348 0.181185,-0.02537 0.205509,-0.113283 0.309561,-0.157875 0.11777,-0.07804 0.28317,-0.05958 0.403649,-0.113307 0.157963,-0.0069 0.208673,-0.193821 0.324888,-0.247941 0.09193,-0.142941 0.320939,-0.0607 0.437312,-0.116899 0.190854,-9.34e-4 0.211442,-0.09953 0.314598,-0.151367 0.123085,-0.0582 0.238784,-0.121636 0.356933,-0.183815 0.11919,-0.06298 0.243088,-0.124757 0.360624,-0.189549 0.122361,-0.06268 0.232345,-0.131549 0.347535,-0.198059 0.116057,-0.06899 0.245303,-0.117083 0.360215,-0.186579 0.128024,-0.05095 0.231286,-0.137117 0.344573,-0.209085 0.11602,-0.06915 0.224335,-0.351518 0.336507,-0.426368 0.07848,-0.259656 0.162554,-0.106896 0.242741,-0.161054 0.112654,-0.07422 0.200914,-0.202145 0.311044,-0.278167 0.08624,-0.125583 0.227734,-0.131946 0.334549,-0.206693 0.122601,-0.06005 0.259353,-0.120771 0.368129,-0.199059 0.145735,-0.04242 0.20286,-0.168449 0.306792,-0.247161 0.09873,-0.09561 0.205975,-0.202913 0.311128,-0.286337 0.094,-0.119936 0.194496,-0.22807 0.29428,-0.309544 0.0892,-0.145799 0.175485,-0.19155 0.270865,-0.269273 0.08702,-0.119677 0.251974,-0.150745 0.355591,-0.234046 0.144658,-0.06375 0.20304,-0.158404 0.298508,-0.242416 0.107436,-0.08575 0.221788,-0.154306 0.319774,-0.250842 0.118257,-0.06797 0.272086,-0.167779 0.363355,-0.279279 0.08522,-0.104107 0.06906,-0.28708 0.16221,-0.39402 0.0885,-0.103433 0.173068,-0.213897 0.257373,-0.319508 0.08166,-0.110602 0.184263,-0.203209 0.263487,-0.309945 0.09821,-0.09919 0.188959,-0.194455 0.263224,-0.302894 0.108519,-0.09043 0.24393,-0.209367 0.313777,-0.321384 0.160156,-0.09125 0.189955,-0.162101 0.248421,-0.266568 0.13235,-0.0767 0.160408,-0.212586 0.219765,-0.336324 0.09038,-0.0966 0.17478,-0.209627 0.22677,-0.340053 0.110806,-0.08755 0.08184,-0.308039 0.124851,-0.445903 0.01725,-0.155899 0.128878,-0.223464 0.158895,-0.342567 0.09171,-0.117433 0.03495,-0.355172 0.05852,-0.486853 -0.0075,-0.195692 0.0156,-0.242512 0.02937,-0.341895 -0.0018,-0.160222 0.04646,-0.233383 0.05797,-0.34882 0.02942,-0.130938 0.08833,-0.252785 0.09442,-0.383103 0.07216,-0.126733 -4.87e-4,-0.288424 -0.0076,-0.425989 -0.01162,-0.143147 -0.0085,-0.240819 -0.02117,-0.368081 -0.0047,-0.120794 -0.05608,-0.424537 -0.07407,-0.565159 -0.017,-0.13285 -0.0099,-0.116103 -0.02331,-0.252791 l 0.02058,-0.382092 0.01941,-0.40845 -0.01475,-0.465297 0.01205,-0.357423 0.001,-0.422014 0.03011,-0.374491 0.05086,-0.434426 -0.02083,-0.482621 0.0094,-0.322741 0.02983,-0.380509 0.02315,-0.436837 0.05501,-0.363966 -0.0075,-0.482798 -0.0051,-0.436604 -0.0034,-0.44465 -0.0059,-0.318322 0.02603,-0.380366 0.01096,-0.412817 -0.0067,-0.558799 0.01662,-0.250559 -0.0045,-0.426826 -0.0315,-0.505037 -0.008,-0.365495 -3.33e-4,-0.342377 -0.0059,-0.415086 -0.0166,-0.427518 8.45e-4,-0.377387 0.0035,-0.405763 0.0031,-0.407766 0.0071,-0.402903 0.04392,-0.365608 -0.009,-0.513833 -0.008,-0.35188 0.0014,-0.39285 -0.02492,-0.453661 -0.0051,-0.368863 0.0019,-0.396381 -0.01807,-0.464614 0.0038,-0.350341 -0.0047,-0.412803 -0.01854,-0.437125 -0.003,-0.37754 0.0064,-0.392227 -0.0056,-0.420663 0.01701,-0.401898 z"
     style="fill:#ffffff;stroke:none;stroke-width:0.79375;stroke-linecap:square;stroke-linejoin:round"
     id="path6"
     transform="translate(0.00456873,0.03787287)" />
</svg>
