<?xml version="1.0" encoding="UTF-8" standalone="no"?>
<!-- Created with Inkscape (http://www.inkscape.org/) -->

<svg
   width="130.14804mm"
   height="86.477173mm"
   viewBox="0 0 130.14804 86.477173"
   version="1.1"
   id="svg1"
   xmlns="http://www.w3.org/2000/svg"
   xmlns:svg="http://www.w3.org/2000/svg">
  <defs
     id="defs1" />
  <path
     id="path247"
     style="display:inline;fill:#000000;stroke:#000000;stroke-width:0.219983;stroke-linecap:round;stroke-linejoin:round;stroke-miterlimit:4.1"
     d="m 91.654351,105.83333 c -6.327414,3.65313 -16.586174,3.65313 -22.913585,0 -6.327411,-3.65313 -6.327414,-9.576029 -5e-6,-13.229163 6.327414,-3.653134 16.58618,-3.653135 22.913594,-10e-7 6.327413,3.653133 6.327411,9.576034 -4e-6,13.229164 z"
     transform="matrix(0.60137523,0,0,0.60137523,16.854756,-11.843139)" />
  <path
     style="display:inline;fill:#ffffff;stroke:#000000;stroke-width:0.264584px;stroke-linecap:butt;stroke-linejoin:miter;stroke-opacity:1"
     d="M 95.474042,23.828765 106.20344,30.023402 95.474042,36.218031 84.744621,30.023402 Z"
     id="path294" />
  <path
     style="display:inline;fill:#fae36f;fill-opacity:1;stroke:#000000;stroke-width:0.529167;stroke-linecap:butt;stroke-linejoin:miter;stroke-dasharray:none;stroke-opacity:1"
     d="M 95.474042,15.156283 106.20344,21.350917 95.474042,27.545542 84.744621,21.350909 Z"
     id="path354" />
  <path
     style="display:inline;fill:#000000;stroke:#000000;stroke-width:0.529167;stroke-linecap:butt;stroke-linejoin:miter;stroke-dasharray:none;stroke-opacity:1"
     d="m 115.65296,43.194584 v 8.760528 h -15.17368 v -8.760536 z"
     id="path331" />
  <path
     style="display:inline;fill:none;stroke:#000000;stroke-width:1.05833;stroke-linecap:butt;stroke-linejoin:miter;stroke-dasharray:none;stroke-opacity:1"
     d="M 100.47928,43.282639 65.014531,47.583807"
     id="path332" />
  <path
     style="display:inline;fill:#fae36f;fill-opacity:1;stroke:#000000;stroke-width:0.529167;stroke-linecap:butt;stroke-linejoin:miter;stroke-dasharray:none;stroke-opacity:1"
     d="m 115.65296,34.522103 v 8.760536 h -15.17369 v -8.760536 z"
     id="path353" />
  <path
     style="display:inline;fill:#ffffff;stroke:#000000;stroke-width:0.264584px;stroke-linecap:butt;stroke-linejoin:miter;stroke-opacity:1"
     d="M 106.20344,65.126294 95.474027,71.320923 84.744621,65.126294 95.474035,58.931657 Z"
     id="path333" />
  <path
     style="fill:#ffffff;stroke:#000000;stroke-width:0.264584px;stroke-linecap:butt;stroke-linejoin:miter;stroke-opacity:1"
     d="m 72.660877,76.776613 -15.173683,-8e-6 2e-6,-8.760528 h 15.173688 z"
     id="path335" />
  <path
     style="fill:none;stroke:#000000;stroke-width:0.264583px;stroke-linecap:butt;stroke-linejoin:miter;stroke-opacity:1"
     d="M 65.074038,72.404895 65.058508,47.540493"
     id="path336" />
  <path
     style="display:inline;fill:#ffffff;stroke:#000000;stroke-width:0.264584px;stroke-linecap:butt;stroke-linejoin:miter;stroke-opacity:1"
     d="M 34.674039,71.320923 23.944621,65.126286 34.674039,58.931657 45.403456,65.126286 Z"
     id="path337" />
  <path
     style="display:inline;fill:none;stroke:#000000;stroke-width:1.05833;stroke-linecap:butt;stroke-linejoin:miter;stroke-dasharray:none;stroke-opacity:1"
     d="M 38.420247,56.275564 65.105154,47.544216"
     id="path338" />
  <path
     style="display:inline;fill:#fae36f;fill-opacity:1;stroke:#000000;stroke-width:0.529167;stroke-linecap:butt;stroke-linejoin:miter;stroke-dasharray:none;stroke-opacity:1"
     d="M 34.674039,62.648403 23.944621,56.453751 34.674039,50.259122 45.403456,56.453751 Z"
     id="path350" />
  <path
     style="display:inline;fill:#000000;stroke:#000000;stroke-width:0.529167;stroke-linecap:butt;stroke-linejoin:miter;stroke-dasharray:none;stroke-opacity:1"
     d="M 72.660877,76.776605 H 57.487191 l 2e-6,-8.760536 15.173691,8e-6 z"
     id="path339" />
  <path
     style="display:inline;fill:none;stroke:#000000;stroke-width:1.05833;stroke-linecap:butt;stroke-linejoin:miter;stroke-dasharray:none;stroke-opacity:1"
     d="M 65.074038,72.404887 65.058508,47.540485"
     id="path340" />
  <path
     style="display:inline;fill:#fae36f;fill-opacity:1;stroke:#000000;stroke-width:0.529167;stroke-linecap:butt;stroke-linejoin:miter;stroke-dasharray:none;stroke-opacity:1"
     d="m 72.660877,68.104133 -15.173721,-3.9e-5 2e-6,-8.760528 h 15.173687 z"
     id="path351" />
  <path
     style="display:inline;fill:#000000;stroke:#000000;stroke-width:0.529167;stroke-linecap:butt;stroke-linejoin:miter;stroke-dasharray:none;stroke-opacity:1"
     d="m 14.495105,51.955104 3e-6,-8.760528 h 15.173684 l -2e-6,8.760536 z"
     id="path341" />
  <path
     style="display:inline;fill:none;stroke:#000000;stroke-width:1.05833;stroke-linecap:butt;stroke-linejoin:miter;stroke-dasharray:none;stroke-opacity:1"
     d="m 29.668756,43.2826 35.464798,4.283288"
     id="path342" />
  <path
     style="display:inline;fill:#fae36f;fill-opacity:1;stroke:#000000;stroke-width:0.529167;stroke-linecap:butt;stroke-linejoin:miter;stroke-dasharray:none;stroke-opacity:1"
     d="m 14.49507,43.2826 3e-6,-8.760528 h 15.173685 l -2e-6,8.760528 z"
     id="path349" />
  <path
     style="display:inline;fill:#ffffff;stroke:#000000;stroke-width:0.264584px;stroke-linecap:butt;stroke-linejoin:miter;stroke-opacity:1"
     d="m 23.944626,30.023394 10.729418,-6.194629 10.729411,6.194637 -10.729416,6.194629 z"
     id="path343" />
  <path
     style="display:inline;fill:none;stroke:#000000;stroke-width:1.05833;stroke-linecap:butt;stroke-linejoin:miter;stroke-dasharray:none;stroke-opacity:1"
     d="m 39.985693,28.972995 25.141399,18.61981"
     id="path344" />
  <path
     style="display:inline;fill:#fae36f;fill-opacity:1;stroke:#000000;stroke-width:0.529167;stroke-linecap:butt;stroke-linejoin:miter;stroke-dasharray:none;stroke-opacity:1"
     d="m 23.944626,21.350855 10.729418,-6.194627 10.729411,6.194635 -10.729416,6.194632 z"
     id="path348" />
  <path
     style="display:inline;fill:#000000;stroke:#000000;stroke-width:0.264584px;stroke-linecap:butt;stroke-linejoin:miter;stroke-opacity:1"
     d="m 57.487199,18.373081 15.173685,7e-6 v 8.76053 H 57.487193 Z"
     id="path345" />
  <path
     style="display:inline;fill:none;stroke:#000000;stroke-width:1.05833;stroke-linecap:butt;stroke-linejoin:miter;stroke-dasharray:none;stroke-opacity:1"
     d="m 65.074038,22.753354 0.01553,24.855848"
     id="path346" />
  <path
     style="display:inline;fill:#fae36f;fill-opacity:1;stroke:#000000;stroke-width:0.529167;stroke-linecap:butt;stroke-linejoin:miter;stroke-dasharray:none;stroke-opacity:1"
     d="m 57.48723,9.7005712 15.173686,5.4e-6 V 18.461105 H 57.487225 Z"
     id="path347" />
  <path
     style="display:inline;fill:#f3bd5b;fill-opacity:1;stroke:#000000;stroke-width:0.529167;stroke-linecap:butt;stroke-linejoin:miter;stroke-dasharray:none;stroke-opacity:1"
     d="m 84.744621,21.350917 -0.05307,8.654519 10.729421,6.194629 0.05307,-8.654523 z"
     id="path355" />
  <path
     style="display:inline;fill:#000000;stroke:#000000;stroke-width:0.529167;stroke-linecap:butt;stroke-linejoin:miter;stroke-dasharray:none;stroke-opacity:1"
     d="m 95.474042,27.545542 10.729398,-6.194625 v 8.672485 l -10.729398,6.194629 v -8.672489"
     id="path356" />
  <path
     style="display:inline;fill:#f3bd5b;fill-opacity:1;stroke:#000000;stroke-width:0.529167;stroke-linecap:butt;stroke-linejoin:miter;stroke-dasharray:none;stroke-opacity:1"
     d="m 23.891576,65.108336 0.05305,-8.654585 10.729418,6.194652 -0.05305,8.654562 z"
     id="path359" />
  <path
     style="display:inline;fill:#000000;stroke:#000000;stroke-width:0.529167;stroke-linecap:butt;stroke-linejoin:miter;stroke-dasharray:none;stroke-opacity:1"
     d="m 34.674038,62.648403 10.729419,-6.194652 -0.05305,8.654585 -10.676362,6.212587 z"
     id="path360" />
  <path
     style="display:inline;fill:#f3bd5b;fill-opacity:1;stroke:#000000;stroke-width:0.529167;stroke-linecap:butt;stroke-linejoin:miter;stroke-dasharray:none;stroke-opacity:1"
     d="m 23.944627,30.023394 v -8.672539 l 10.729412,6.19464 -0.05305,8.65457 z"
     id="path361" />
  <path
     style="display:inline;fill:#000000;stroke:#000000;stroke-width:0.529167;stroke-linecap:butt;stroke-linejoin:miter;stroke-dasharray:none;stroke-opacity:1"
     d="m 34.674039,27.545495 10.729416,-6.194632 -0.05305,8.654573 -10.676361,6.212595 z"
     id="path362" />
  <path
     style="display:inline;fill:none;stroke:#000000;stroke-width:1.05833;stroke-linecap:butt;stroke-linejoin:miter;stroke-dasharray:none;stroke-opacity:1"
     d="M 90.082803,28.775493 65.042931,47.605472"
     id="path279" />
  <path
     style="display:inline;fill:none;stroke:#000000;stroke-width:1.05833;stroke-linecap:butt;stroke-linejoin:miter;stroke-dasharray:none;stroke-opacity:1"
     d="M 91.84452,56.848826 65.020993,47.556882"
     id="path334" />
  <path
     style="display:inline;fill:#fae36f;fill-opacity:1;stroke:#000000;stroke-width:0.529167;stroke-linecap:butt;stroke-linejoin:miter;stroke-dasharray:none;stroke-opacity:1"
     d="M 106.20344,56.453805 95.474027,62.648434 84.744621,56.453805 95.474035,50.259176 Z"
     id="path352" />
  <path
     style="display:inline;fill:#f3bd5b;fill-opacity:1;stroke:#000000;stroke-width:0.529167;stroke-linecap:butt;stroke-linejoin:miter;stroke-dasharray:none;stroke-opacity:1"
     d="m 84.691576,65.108336 0.05307,-8.654531 10.729421,6.194629 -0.05307,8.654531 -10.729421,-6.194629"
     id="path357" />
  <path
     style="display:inline;fill:#000000;stroke:#000000;stroke-width:0.529167;stroke-linecap:butt;stroke-linejoin:miter;stroke-dasharray:none;stroke-opacity:1"
     d="m 95.474042,62.648434 10.729398,-6.194629 v 8.672489 l -10.729405,6.194629 z"
     id="path358" />
  <circle
     style="fill:#ff0000;stroke:none;stroke-width:1.05833;stroke-linecap:round;stroke-linejoin:round;stroke-miterlimit:4.1"
     id="attach-point"
     cx="65.054161"
     cy="48.771763"
     r="1.1886165" />
</svg>
