<?xml version="1.0" encoding="UTF-8" standalone="no"?>
<!-- Created with Inkscape (http://www.inkscape.org/) -->

<svg
   width="34.460209mm"
   height="38.736214mm"
   viewBox="0 0 34.460209 38.736214"
   version="1.1"
   id="svg1"
   xmlns="http://www.w3.org/2000/svg"
   xmlns:svg="http://www.w3.org/2000/svg">
  <defs
     id="defs1" />
  <path
     id="path59"
     style="fill:#ffffff;fill-opacity:1;stroke:#000000;stroke-width:0.264583;stroke-linecap:round;stroke-linejoin:round;stroke-miterlimit:4.1;stroke-dasharray:none"
     d="m 22.596408,1.082582 c -1.31906,0.0275 -2.79826,0.46963 -4.36049,1.37108 -5.55462,3.20517 -10.057427,11.00011 -10.057427,17.41043 0,6.41035 4.502807,9.00867 10.057427,5.8035 5.55463,-3.20515 10.05741,-11.00011 10.05741,-17.41046 0,-4.60743 -2.32596,-7.24516 -5.69692,-7.17455 z" />
  <path
     style="fill:#f3bd5b;fill-opacity:1;stroke:#000000;stroke-width:0.264583px;stroke-linecap:butt;stroke-linejoin:round;stroke-opacity:1"
     d="m 26.281868,14.060642 8.04605,-4.64278 v 2.3214 l -8.03261,4.61548 -0.014,-2.2941"
     id="path58" />
  <path
     style="fill:#f3bd5b;fill-opacity:1;stroke:#000000;stroke-width:0.264583px;stroke-linecap:butt;stroke-linejoin:round;stroke-opacity:1"
     d="m 0.132291,24.506912 8.04602,-4.64277 0.97249,1.76023 -9.01851,5.20394 z"
     id="path53" />
  <path
     style="fill:#f3bd5b;fill-opacity:1;stroke:#000000;stroke-width:0.264583px;stroke-linecap:butt;stroke-linejoin:round;stroke-opacity:1"
     d="m 0.132291,29.517682 10.61039,-6.49046 0.57163,1.99152 -11.18202,6.82035 z"
     id="path56" />
  <path
     style="fill:#f3bd5b;fill-opacity:1;stroke:#000000;stroke-width:0.264583px;stroke-linecap:butt;stroke-linejoin:round;stroke-opacity:1"
     d="m 28.293378,8.257162 6.03454,-3.48209 v 2.3214 l -7.3713,4.25345 1.33676,-3.09276"
     id="path54" />
  <path
     style="fill:#f3bd5b;fill-opacity:1;stroke:#000000;stroke-width:0.264583px;stroke-linecap:butt;stroke-linejoin:round;stroke-opacity:1"
     d="m 0.132351,19.864142 10.05748,-5.8035 2.011517,-3.48208 12.06903,-6.96418 2.01149,1.16069 8.04605,-4.64279 v 2.3214 l -6.20006,3.79081 -1.39235,2.90676 -16.999177,9.81875 -1.40074,-1.25116 -0.15732,-0.1761 -8.04598,4.64277 z"
     id="path51" />
  <path
     style="fill:#f3bd5b;fill-opacity:1;stroke:#000000;stroke-width:0.264583px;stroke-linecap:butt;stroke-linejoin:miter;stroke-opacity:1"
     d="m 10.189831,23.346212 16.092037,-9.28557 -2.02841,5.82874 -5.47588,5.46627 -7.463267,-0.33691 -1.12448,-1.67253"
     id="path52" />
  <path
     id="path31"
     style="opacity:0.6;fill:#ffffff;fill-opacity:1;stroke:#000000;stroke-width:0.264583;stroke-linecap:round;stroke-linejoin:round;stroke-miterlimit:4.1;stroke-dasharray:none"
     d="m 22.596408,1.082582 c -1.31906,0.0275 -2.79826,0.46963 -4.36049,1.37108 -5.55462,3.20517 -10.057427,11.00011 -10.057427,17.41043 0,6.41035 4.502807,9.00867 10.057427,5.8035 5.55463,-3.20515 10.05741,-11.00011 10.05741,-17.41046 0,-4.60743 -2.32596,-7.24516 -5.69692,-7.17455 z" />
  <path
     id="path46"
     style="fill:#000000;stroke:#000000;stroke-width:0.264583;stroke-linecap:round;stroke-linejoin:round;stroke-miterlimit:4.1;stroke-dasharray:none"
     d="m 18.777578,25.355652 c 0,0 -1.00267,0.58746 -1.51996,0.82224 -0.51729,0.23477 -1.57484,0.586 -1.57484,0.586 v 11.09101 c 3.2e-4,0.41369 0.6928,0.74897 1.54695,0.74902 0.85451,1.9e-4 1.54752,-0.33516 1.54785,-0.74902 z" />
  <path
     id="path50"
     style="fill:#000000;stroke:#000000;stroke-width:0.264583;stroke-linecap:round;stroke-linejoin:round;stroke-miterlimit:4.1;stroke-dasharray:none"
     d="m 22.596408,1.082582 c -1.31906,0.0275 -2.79826,0.46963 -4.36049,1.37108 -5.55462,3.20517 -10.057427,11.00011 -10.057427,17.41043 0,6.41035 4.502807,9.00867 10.057427,5.8035 5.55463,-3.20515 10.05741,-11.00011 10.05741,-17.41046 0,-4.60743 -2.32596,-7.24516 -5.69692,-7.17455 z m -0.67503,1.99949 c 2.84892,-0.0597 4.81413,2.17164 4.81413,6.06918 0,5.42264 -3.80516,12.01682 -8.49958,14.72814 -4.69439,2.71132 -8.499597,0.51325 -8.499597,-4.90939 0,-5.42265 3.805197,-12.01681 8.499597,-14.72813 1.32029,-0.76257 2.57066,-1.13642 3.68545,-1.1598 z" />
  <circle
     style="fill:#ff0000;stroke:none;stroke-width:0.264583;stroke-linecap:round;stroke-linejoin:round;stroke-miterlimit:4.1"
     id="attach-point"
     cx="17.230179"
     cy="38.329136"
     r="0.39096585" />
</svg>
